<svg width="795" height="150" viewBox="0 0 795 150" fill="none" xmlns="http://www.w3.org/2000/svg">
<path d="M0.449219 147V2.99999H24.5492V69.8L82.0492 2.99999H111.649L49.7492 73.6L115.849 147H85.2492L24.5492 79.8V147H0.449219Z" fill="white"/>
<path d="M125.941 147V39H147.241V65.3L144.641 61.9C145.975 58.3 147.741 55.0333 149.941 52.1C152.208 49.1 154.908 46.6333 158.041 44.7C160.708 42.9 163.641 41.5 166.841 40.5C170.108 39.4333 173.441 38.8 176.841 38.6C180.241 38.3333 183.541 38.4667 186.741 39V61.5C183.541 60.5667 179.841 60.2667 175.641 60.6C171.508 60.9333 167.775 62.1 164.441 64.1C161.108 65.9 158.375 68.2 156.241 71C154.175 73.8 152.641 77 151.641 80.6C150.641 84.1333 150.141 87.9667 150.141 92.1V147H125.941Z" fill="white"/>
<path d="M246.924 150C235.991 150 226.391 147.633 218.124 142.9C209.858 138.167 203.391 131.6 198.724 123.2C194.124 114.8 191.824 105.133 191.824 94.2C191.824 82.4 194.091 72.1667 198.624 63.5C203.158 54.7667 209.458 48 217.524 43.2C225.591 38.4 234.924 36 245.524 36C256.724 36 266.224 38.6333 274.024 43.9C281.891 49.1 287.724 56.4667 291.524 66C295.324 75.5333 296.758 86.7667 295.824 99.7H271.924V90.9C271.858 79.1667 269.791 70.6 265.724 65.2C261.658 59.8 255.258 57.1 246.524 57.1C236.658 57.1 229.324 60.1667 224.524 66.3C219.724 72.3667 217.324 81.2667 217.324 93C217.324 103.933 219.724 112.4 224.524 118.4C229.324 124.4 236.324 127.4 245.524 127.4C251.458 127.4 256.558 126.1 260.824 123.5C265.158 120.833 268.491 117 270.824 112L294.624 119.2C290.491 128.933 284.091 136.5 275.424 141.9C266.824 147.3 257.324 150 246.924 150ZM209.724 99.7V81.5H284.024V99.7H209.724Z" fill="white"/>
<path d="M345.337 150C337.537 150 330.937 148.533 325.537 145.6C320.137 142.6 316.037 138.633 313.237 133.7C310.503 128.767 309.137 123.333 309.137 117.4C309.137 112.2 310.003 107.533 311.737 103.4C313.47 99.2 316.137 95.6 319.737 92.6C323.337 89.5333 328.003 87.0333 333.737 85.1C338.07 83.7 343.137 82.4333 348.937 81.3C354.803 80.1667 361.137 79.1333 367.937 78.2C374.803 77.2 381.97 76.1333 389.437 75L380.837 79.9C380.903 72.4333 379.237 66.9333 375.837 63.4C372.437 59.8667 366.703 58.1 358.637 58.1C353.77 58.1 349.07 59.2333 344.537 61.5C340.003 63.7667 336.837 67.6667 335.037 73.2L313.037 66.3C315.703 57.1667 320.77 49.8333 328.237 44.3C335.77 38.7667 345.903 36 358.637 36C368.237 36 376.67 37.5667 383.937 40.7C391.27 43.8333 396.703 48.9667 400.237 56.1C402.17 59.9 403.337 63.8 403.737 67.8C404.137 71.7333 404.337 76.0333 404.337 80.7V147H383.237V123.6L386.737 127.4C381.87 135.2 376.17 140.933 369.637 144.6C363.17 148.2 355.07 150 345.337 150ZM350.137 130.8C355.603 130.8 360.27 129.833 364.137 127.9C368.003 125.967 371.07 123.6 373.337 120.8C375.67 118 377.237 115.367 378.037 112.9C379.303 109.833 380.003 106.333 380.137 102.4C380.337 98.4 380.437 95.1667 380.437 92.7L387.837 94.9C380.57 96.0333 374.337 97.0333 369.137 97.9C363.937 98.7667 359.47 99.6 355.737 100.4C352.003 101.133 348.703 101.967 345.837 102.9C343.037 103.9 340.67 105.067 338.737 106.4C336.803 107.733 335.303 109.267 334.237 111C333.237 112.733 332.737 114.767 332.737 117.1C332.737 119.767 333.403 122.133 334.737 124.2C336.07 126.2 338.003 127.8 340.537 129C343.137 130.2 346.337 130.8 350.137 130.8Z" fill="white"/>
<path d="M489.671 147C482.538 148.333 475.538 148.9 468.671 148.7C461.871 148.567 455.771 147.333 450.371 145C444.971 142.6 440.871 138.833 438.071 133.7C435.604 129.033 434.304 124.267 434.171 119.4C434.038 114.533 433.971 109.033 433.971 102.9V8.99998H457.971V101.5C457.971 105.833 458.004 109.633 458.071 112.9C458.204 116.167 458.904 118.833 460.171 120.9C462.571 124.9 466.404 127.133 471.671 127.6C476.938 128.067 482.938 127.8 489.671 126.8V147ZM414.371 57.9V39H489.671V57.9H414.371Z" fill="white"/>
<path d="M510.895 22.6V0.5H534.995V22.6H510.895ZM510.895 147V39H534.995V147H510.895Z" fill="white"/>
<path d="M590.149 147L550.949 39H575.049L602.249 117.3L629.349 39H653.549L614.349 147H590.149Z" fill="white"/>
<path d="M710.596 150C699.663 150 690.063 147.633 681.796 142.9C673.529 138.167 667.063 131.6 662.396 123.2C657.796 114.8 655.496 105.133 655.496 94.2C655.496 82.4 657.763 72.1667 662.296 63.5C666.829 54.7667 673.129 48 681.196 43.2C689.263 38.4 698.596 36 709.196 36C720.396 36 729.896 38.6333 737.696 43.9C745.563 49.1 751.396 56.4667 755.196 66C758.996 75.5333 760.429 86.7667 759.496 99.7H735.596V90.9C735.529 79.1667 733.463 70.6 729.396 65.2C725.329 59.8 718.929 57.1 710.196 57.1C700.329 57.1 692.996 60.1667 688.196 66.3C683.396 72.3667 680.996 81.2667 680.996 93C680.996 103.933 683.396 112.4 688.196 118.4C692.996 124.4 699.996 127.4 709.196 127.4C715.129 127.4 720.229 126.1 724.496 123.5C728.829 120.833 732.163 117 734.496 112L758.296 119.2C754.163 128.933 747.763 136.5 739.096 141.9C730.496 147.3 720.996 150 710.596 150ZM673.396 99.7V81.5H747.696V99.7H673.396Z" fill="white"/>
<path d="M769.809 147V122.3H794.509V147H769.809Z" fill="white"/>
</svg>
