<?xml version="1.0" encoding="UTF-8"?><svg version="1.1" xmlns="http://www.w3.org/2000/svg" xmlns:xlink="http://www.w3.org/1999/xlink" x="0px" y="0px" viewBox="0 0 1600 1200" style="enable-background:new 0 0 1600 1200;" xml:space="preserve" width="1600px" height="1200px">

<g id="background">
	<g>
		<g>
			<path d="M1387.2,953.6c-14.9-22.8-24.6-48.6-28.3-75.6c-0.5,0.6-1,1.3-1.4,1.9c3.4-0.3,6.3,0.4,9,2.5
				c1.5,1.2,3.6-0.9,2.1-2.1c-3.4-2.6-6.9-3.8-11.1-3.4c-1.1,0.1-1.6,0.9-1.4,1.9c3.8,27.3,13.5,53.3,28.6,76.3
				C1385.7,956.7,1388.3,955.2,1387.2,953.6L1387.2,953.6z" style="fill:#E8E8E8;"/>
		</g>
	</g>
	<g>
		<g>
			<path d="M1368.5,880.8c-3.4-35.1,2-70.5,15.8-103c-0.9,0-1.7,0-2.6,0c1.5,2.2,2.6,4.3,3.5,6.8c0.6,1.8,3.5,1,2.9-0.8
				c-1-2.7-2.1-5.1-3.8-7.5c-0.6-0.8-2.1-1.1-2.6,0c-14,33-19.6,68.9-16.2,104.5C1365.7,882.7,1368.7,882.8,1368.5,880.8
				L1368.5,880.8z" style="fill:#E8E8E8;"/>
		</g>
	</g>
	<g>
		<g>
			<path d="M1389,783.3c3.5-8.5,7.4-16.9,11.8-24.9c3.7-6.7,9-20.2,18.6-18.3c9.7,1.9,12.9,14.8,15,22.9
				c2.3,9,3.3,18.3,3.6,27.5c0.6,17.4-0.8,34.9-2,52.2c-1.3,18.4-3.4,36.8-7.7,54.8c-4.7,20-11.7,39.3-20.6,57.7
				c-0.8,1.7,1.7,3.3,2.6,1.5c8.8-18.1,15.8-37.1,20.5-56.7c4.9-20.1,7.1-40.6,8.4-61.2c1.3-20.5,3.3-41.5,0.8-62
				c-1.5-12.3-5.1-39.3-21.9-40.1c-8.8-0.4-13.4,8.8-17.1,15.2c-5.7,9.8-10.6,20-14.9,30.5C1385.4,784.3,1388.3,785.1,1389,783.3
				L1389,783.3z" style="fill:#E8E8E8;"/>
		</g>
	</g>
	<g>
		<g>
			<path d="M1438.3,854.9c3.4-6.8,7.4-13.2,12.2-19c2.3-2.8,13.1-17.2,17.4-13.9c0.9,0.7,1.2,4.1,1.4,5.3
				c0.6,2.5,1,5.1,1.2,7.7c0.4,4,0.5,7.9,0.3,11.9c-0.4,8.5-1.9,17-4,25.3c-7.6,30.3-21.2,58.9-38.9,84.5c-1.1,1.6,1.5,3.1,2.6,1.5
				c20.5-29.5,37.2-64.9,42.3-100.8c1.2-8.5,1.6-17.1,0.4-25.6c-0.5-3.7-1.2-15.7-7.3-14.5c-2.8,0.6-5.4,3.8-7.4,5.6
				c-3.2,3-6.3,6.2-9.1,9.5c-5.4,6.4-10,13.4-13.7,20.9C1434.8,855.1,1437.4,856.6,1438.3,854.9L1438.3,854.9z" style="fill:#E8E8E8;"/>
		</g>
	</g>
	<g>
		<g>
			<path d="M652.1,957.4c-13.2-15.1-24.1-32.1-32.3-50.4c-0.2,0.7-0.4,1.4-0.5,2.1c4-1.8,8-2.5,12.4-2.2
				c1.9,0.1,1.9-2.9,0-3c-4.9-0.3-9.4,0.6-13.9,2.6c-0.8,0.4-0.8,1.4-0.5,2.1c8.4,18.6,19.4,35.7,32.8,51
				C651.2,961,653.4,958.9,652.1,957.4L652.1,957.4z" style="fill:#E8E8E8;"/>
		</g>
	</g>
	<g>
		<g>
			<path d="M631.9,902.7c-7.9-13.8-12.9-29.1-14.3-44.9c-0.9-10-2.7-45.8,16-36c6.6,3.5,10.4,11,13.8,17.3
				c4,7.3,7.5,14.9,10.6,22.6c5.6,14.1,9.7,28.8,12.2,43.7c3,17.7,3.7,35.7,2.3,53.7c-0.2,1.9,2.9,1.9,3,0
				c2.8-36.1-3.3-72.6-17.9-105.8c-3.6-8.2-7.6-16.6-12.6-24.1c-3.6-5.4-8.5-10.7-15.2-11.9c-16-2.9-15.8,21.2-15.8,31.2
				c0.1,19.6,5.4,38.8,15.2,55.8C630.3,905.8,632.9,904.3,631.9,902.7L631.9,902.7z" style="fill:#E8E8E8;"/>
		</g>
	</g>
	<g>
		<g>
			<path d="M666.9,877.5c-0.6-7.5,1.6-41.7,15.8-34.5c11.3,5.7,13.7,23.4,14.3,34.6c0.7,12.7,0.2,25.5-0.1,38.2
				c-0.4,13.3-1.4,26.5-6,39.1c-0.7,1.8,2.2,2.6,2.9,0.8c5.7-15.4,6-31.8,6.3-48c0.3-15.3,1.6-31.6-2.5-46.6
				c-2.3-8.3-10.5-26.6-22.3-21.1c-5,2.4-7.2,9.2-8.8,14.1c-2.4,7.7-3.2,15.6-2.6,23.6C664,879.5,667,879.5,666.9,877.5L666.9,877.5
				z" style="fill:#E8E8E8;"/>
		</g>
	</g>
	<g>
		<g>
			<path d="M624.3,819.8c12.9,28.8,23.5,58.5,31.6,89c0.5,1.9,3.4,1.1,2.9-0.8c-8.2-30.7-18.8-60.7-31.9-89.7
				C626.1,816.5,623.5,818,624.3,819.8L624.3,819.8z" style="fill:#E8E8E8;"/>
		</g>
	</g>
	<g>
		<g>
			<path d="M616,859.3c15.3,5.4,27.7,16.5,34.8,31.1c0.9,1.7,3.4,0.2,2.6-1.5c-7.5-15.3-20.6-26.8-36.6-32.5
				C615,855.8,614.2,858.7,616,859.3L616,859.3z" style="fill:#E8E8E8;"/>
		</g>
	</g>
	<g>
		<g>
			<path d="M645.9,833.3c-2.7,8.9-4.1,18-4.4,27.2c-0.1,1.9,2.9,1.9,3,0c0.3-9,1.7-17.8,4.3-26.4
				C649.3,832.2,646.4,831.4,645.9,833.3L645.9,833.3z" style="fill:#E8E8E8;"/>
		</g>
	</g>
	<g>
		<g>
			<path d="M666.1,859.3c9.4,11,16.1,23.6,20.1,37.5c0.5,1.9,3.4,1.1,2.9-0.8c-4.1-14.4-11.1-27.5-20.8-38.8
				C667,855.7,664.9,857.8,666.1,859.3L666.1,859.3z" style="fill:#E8E8E8;"/>
		</g>
	</g>
	<g>
		<g>
			<path d="M681,858.5c6.5,32.3,5.4,64.2,2,96.8c-0.2,1.9,2.8,1.9,3,0c3.5-32.8,4.5-65-2.1-97.6
				C683.5,855.8,680.6,856.6,681,858.5L681,858.5z" style="fill:#E8E8E8;"/>
		</g>
	</g>
	<g>
		<g>
			<path d="M486.2,598.5c0,7.1,0,14.2,0,21.4c0,1.9,3,1.9,3,0c0-7.1,0-14.2,0-21.4C489.2,596.6,486.2,596.6,486.2,598.5
				L486.2,598.5z" style="fill:#E8E8E8;"/>
		</g>
	</g>
	<g>
		<g>
			<path d="M487.7,621.9c35,0,69.9,0,104.9,0c1.9,0,1.9-3,0-3c-35,0-69.9,0-104.9,0
				C485.8,618.9,485.8,621.9,487.7,621.9L487.7,621.9z" style="fill:#E8E8E8;"/>
		</g>
	</g>
	<g>
		<g>
			<path d="M487.7,599.7c35.2,0,70.4,0,105.6,0c1.9,0,1.9-3,0-3c-35.2,0-70.4,0-105.6,0
				C485.8,596.7,485.8,599.7,487.7,599.7L487.7,599.7z" style="fill:#E8E8E8;"/>
		</g>
	</g>
	<g>
		<g>
			<path d="M591.8,598c0,7.3,0,14.6,0,21.9c0,1.9,3,1.9,3,0c0-7.3,0-14.6,0-21.9C594.8,596,591.8,596,591.8,598
				L591.8,598z" style="fill:#E8E8E8;"/>
		</g>
	</g>
	<g>
		<g>
			<path d="M525.7,621.5c0,6.1,0,12.2,0,18.3c0,1.9,3,1.9,3,0c0-6.1,0-12.2,0-18.3C528.7,619.6,525.7,619.6,525.7,621.5
				L525.7,621.5z" style="fill:#E8E8E8;"/>
		</g>
	</g>
	<g>
		<g>
			<path d="M527.4,642.4c27.9,0,55.8,0,83.7,0c1.9,0,1.9-3,0-3c-27.9,0-55.8,0-83.7,0
				C525.4,639.4,525.4,642.4,527.4,642.4L527.4,642.4z" style="fill:#E8E8E8;"/>
		</g>
	</g>
	<g>
		<g>
			<path d="M593.5,622.1c6.2,0,12.4,0,18.7,0c1.9,0,1.9-3,0-3c-6.2,0-12.4,0-18.7,0
				C591.5,619.1,591.5,622.1,593.5,622.1L593.5,622.1z" style="fill:#E8E8E8;"/>
		</g>
	</g>
	<g>
		<g>
			<path d="M610.8,621.7c0,6.2,0,12.4,0,18.7c0,1.9,3,1.9,3,0c0-6.2,0-12.4,0-18.7C613.8,619.8,610.8,619.8,610.8,621.7
				L610.8,621.7z" style="fill:#E8E8E8;"/>
		</g>
	</g>
	<g>
		<g>
			<path d="M601.2,641.3c0,6.8,0,13.5,0,20.3c0,1.9,3,1.9,3,0c0-6.8,0-13.5,0-20.3C604.2,639.3,601.2,639.3,601.2,641.3
				L601.2,641.3z" style="fill:#E8E8E8;"/>
		</g>
	</g>
	<g>
		<g>
			<path d="M603.1,663.2c23,0,46,0,69,0c1.9,0,1.9-3,0-3c-23,0-46,0-69,0C601.1,660.2,601.1,663.2,603.1,663.2
				L603.1,663.2z" style="fill:#E8E8E8;"/>
		</g>
	</g>
	<g>
		<g>
			<path d="M612.5,642.6c20,0,40,0,60,0c1.9,0,1.9-3,0-3c-20,0-40,0-60,0C610.6,639.6,610.6,642.6,612.5,642.6
				L612.5,642.6z" style="fill:#E8E8E8;"/>
		</g>
	</g>
	<g>
		<g>
			<path d="M670.8,640.9c0,6.5,0,12.9,0,19.4c0,1.9,3,1.9,3,0c0-6.5,0-12.9,0-19.4C673.8,639,670.8,639,670.8,640.9
				L670.8,640.9z" style="fill:#E8E8E8;"/>
		</g>
	</g>
	<g>
		<g>
			<path d="M602.6,660.1c-19.1,0-38.2,0-57.3,0c-1.9,0-1.9,3,0,3c19.1,0,38.2,0,57.3,0
				C604.5,663.1,604.5,660.1,602.6,660.1L602.6,660.1z" style="fill:#E8E8E8;"/>
		</g>
	</g>
	<g>
		<g>
			<path d="M546.5,661.4c0-6.4,0-12.8,0-19.3c0-1.9-3-1.9-3,0c0,6.4,0,12.8,0,19.3C543.5,663.3,546.5,663.3,546.5,661.4
				L546.5,661.4z" style="fill:#E8E8E8;"/>
		</g>
	</g>
	<g>
		<g>
			<path d="M423.2,169.7c0,72.3,0,144.5,0,216.8c0,1.9,3,1.9,3,0c0-72.3,0-144.5,0-216.8
				C426.2,167.8,423.2,167.8,423.2,169.7L423.2,169.7z" style="fill:#E8E8E8;"/>
		</g>
	</g>
	<g>
		<g>
			<path d="M424.5,388.7c70.4,0,140.8,0,211.2,0c19.9,0,39.9,0,59.8,0c1.9,0,1.9-3,0-3c-70.4,0-140.8,0-211.2,0
				c-19.9,0-39.9,0-59.8,0C422.6,385.7,422.6,388.7,424.5,388.7L424.5,388.7z" style="fill:#E8E8E8;"/>
		</g>
	</g>
	<g>
		<g>
			<path d="M425.2,169.7c69.6,0,139.2,0,208.8,0c19.7,0,39.3,0,59,0c1.9,0,1.9-3,0-3c-69.6,0-139.2,0-208.8,0
				c-19.7,0-39.3,0-59,0C423.3,166.7,423.3,169.7,425.2,169.7L425.2,169.7z" style="fill:#E8E8E8;"/>
		</g>
	</g>
	<g>
		<g>
			<path d="M694.6,169.1c0,72.3,0,144.6,0,217c0,1.9,3,1.9,3,0c0-72.3,0-144.6,0-217
				C697.6,167.2,694.6,167.2,694.6,169.1L694.6,169.1z" style="fill:#E8E8E8;"/>
		</g>
	</g>
	<g>
		<g>
			<path d="M438,180.7c0,65.3,0,130.6,0,195.8c0,1.9,3,1.9,3,0c0-65.3,0-130.6,0-195.8C441,178.7,438,178.7,438,180.7
				L438,180.7z" style="fill:#E8E8E8;"/>
		</g>
	</g>
	<g>
		<g>
			<path d="M439.3,378.6c80.2,0,160.4,0,240.5,0c1.9,0,1.9-3,0-3c-80.2,0-160.4,0-240.5,0
				C437.4,375.6,437.3,378.6,439.3,378.6L439.3,378.6z" style="fill:#E8E8E8;"/>
		</g>
	</g>
	<g>
		<g>
			<path d="M439.9,180.8c79.2,0,158.5,0,237.7,0c1.9,0,1.9-3,0-3c-79.2,0-158.5,0-237.7,0
				C438,177.8,438,180.8,439.9,180.8L439.9,180.8z" style="fill:#E8E8E8;"/>
		</g>
	</g>
	<g>
		<g>
			<path d="M678.8,180.1c0,65.3,0,130.7,0,196c0,1.9,3,1.9,3,0c0-65.3,0-130.7,0-196
				C681.8,178.2,678.8,178.2,678.8,180.1L678.8,180.1z" style="fill:#E8E8E8;"/>
		</g>
	</g>
	<g>
		<g>
			<path d="M555.7,181c0,31.9,0,63.7,0,95.6c0,1.9,3,1.9,3,0c0-31.9,0-63.7,0-95.6C558.7,179,555.7,179,555.7,181
				L555.7,181z" style="fill:#E8E8E8;"/>
		</g>
	</g>
	<g>
		<g>
			<path d="M557.2,275c-38.1,0-76.3,0-114.4,0c-1.9,0-1.9,3,0,3c38.1,0,76.3,0,114.4,0C559.1,278,559.1,275,557.2,275
				L557.2,275z" style="fill:#E8E8E8;"/>
		</g>
	</g>
	<g>
		<g>
			<path d="M570.6,181c0,31.6,0,63.1,0,94.7c0,1.9,3,1.9,3,0c0-31.6,0-63.1,0-94.7C573.6,179,570.6,179,570.6,181
				L570.6,181z" style="fill:#E8E8E8;"/>
		</g>
	</g>
	<g>
		<g>
			<path d="M572.1,278.9c35.2,0,70.4,0,105.6,0c1.9,0,1.9-3,0-3c-35.2,0-70.4,0-105.6,0
				C570.1,275.9,570.1,278.9,572.1,278.9L572.1,278.9z" style="fill:#E8E8E8;"/>
		</g>
	</g>
	<g>
		<g>
			<path d="M441.9,292.9c38.3,0,76.6,0,114.8,0c1.9,0,1.9-3,0-3c-38.3,0-76.6,0-114.8,0
				C440,289.9,439.9,292.9,441.9,292.9L441.9,292.9z" style="fill:#E8E8E8;"/>
		</g>
	</g>
	<g>
		<g>
			<path d="M555.2,291.8c0,28.1,0,56.1,0,84.2c0,1.9,3,1.9,3,0c0-28.1,0-56.1,0-84.2
				C558.2,289.9,555.2,289.9,555.2,291.8L555.2,291.8z" style="fill:#E8E8E8;"/>
		</g>
	</g>
	<g>
		<g>
			<path d="M570.1,294c0,27.3,0,54.6,0,82c0,1.9,3,1.9,3,0c0-27.3,0-54.6,0-82C573.1,292.1,570.1,292.1,570.1,294
				L570.1,294z" style="fill:#E8E8E8;"/>
		</g>
	</g>
	<g>
		<g>
			<path d="M571.2,296c36.1,0,72.2,0,108.3,0c1.9,0,1.9-3,0-3c-36.1,0-72.2,0-108.3,0C569.3,293,569.2,296,571.2,296
				L571.2,296z" style="fill:#E8E8E8;"/>
		</g>
	</g>
	<g>
		<g>
			<path d="M646,181.7c-22.5,25.4-43.6,52-63.4,79.6c-1.1,1.6,1.5,3.1,2.6,1.5c19.6-27.4,40.6-53.8,62.9-79
				C649.4,182.4,647.3,180.2,646,181.7L646,181.7z" style="fill:#E8E8E8;"/>
		</g>
	</g>
	<g>
		<g>
			<path d="M645.8,218.7c-10.4,12.6-20.8,25.2-31.2,37.7c-1.2,1.5,0.9,3.6,2.1,2.1c10.4-12.6,20.8-25.2,31.2-37.7
				C649.1,219.3,647,217.2,645.8,218.7L645.8,218.7z" style="fill:#E8E8E8;"/>
		</g>
	</g>
	<g>
		<g>
			<path d="M453.4,374.9c26.2-26.2,52.4-52.5,78.6-78.7c1.4-1.4-0.8-3.5-2.1-2.1c-26.2,26.2-52.4,52.5-78.6,78.7
				C450,374.1,452.1,376.2,453.4,374.9L453.4,374.9z" style="fill:#E8E8E8;"/>
		</g>
	</g>
	<g>
		<g>
			<path d="M498.7,365.7c8.9-11.4,18.3-22.2,28.4-32.5c1.4-1.4-0.8-3.5-2.1-2.1c-10.1,10.3-19.6,21.1-28.4,32.5
				C495.4,365.1,497.5,367.3,498.7,365.7L498.7,365.7z" style="fill:#E8E8E8;"/>
		</g>
	</g>
	<g>
		<g>
			<path d="M1181.4,166.4c0,72.3,0,144.5,0,216.8c0,1.9,3,1.9,3,0c0-72.3,0-144.5,0-216.8
				C1184.4,164.5,1181.4,164.5,1181.4,166.4L1181.4,166.4z" style="fill:#E8E8E8;"/>
		</g>
	</g>
	<g>
		<g>
			<path d="M1182.7,385.4c70.4,0,140.8,0,211.2,0c19.9,0,39.9,0,59.8,0c1.9,0,1.9-3,0-3c-70.4,0-140.8,0-211.2,0
				c-19.9,0-39.9,0-59.8,0C1180.8,382.4,1180.8,385.4,1182.7,385.4L1182.7,385.4z" style="fill:#E8E8E8;"/>
		</g>
	</g>
	<g>
		<g>
			<path d="M1183.4,166.5c69.6,0,139.2,0,208.8,0c19.7,0,39.3,0,59,0c1.9,0,1.9-3,0-3c-69.6,0-139.2,0-208.8,0
				c-19.7,0-39.3,0-59,0C1181.5,163.5,1181.5,166.5,1183.4,166.5L1183.4,166.5z" style="fill:#E8E8E8;"/>
		</g>
	</g>
	<g>
		<g>
			<path d="M1452.8,165.8c0,72.3,0,144.6,0,217c0,1.9,3,1.9,3,0c0-72.3,0-144.6,0-217
				C1455.8,163.9,1452.8,163.9,1452.8,165.8L1452.8,165.8z" style="fill:#E8E8E8;"/>
		</g>
	</g>
	<g>
		<g>
			<path d="M1196.2,177.4c0,65.3,0,130.6,0,195.8c0,1.9,3,1.9,3,0c0-65.3,0-130.6,0-195.8
				C1199.2,175.4,1196.2,175.4,1196.2,177.4L1196.2,177.4z" style="fill:#E8E8E8;"/>
		</g>
	</g>
	<g>
		<g>
			<path d="M1197.5,375.3c80.2,0,160.4,0,240.5,0c1.9,0,1.9-3,0-3c-80.2,0-160.4,0-240.5,0
				C1195.5,372.3,1195.5,375.3,1197.5,375.3L1197.5,375.3z" style="fill:#E8E8E8;"/>
		</g>
	</g>
	<g>
		<g>
			<path d="M1198.1,177.5c79.2,0,158.5,0,237.7,0c1.9,0,1.9-3,0-3c-79.2,0-158.5,0-237.7,0
				C1196.2,174.5,1196.2,177.5,1198.1,177.5L1198.1,177.5z" style="fill:#E8E8E8;"/>
		</g>
	</g>
	<g>
		<g>
			<path d="M1437,176.8c0,65.3,0,130.7,0,196c0,1.9,3,1.9,3,0c0-65.3,0-130.7,0-196C1440,174.9,1437,174.9,1437,176.8
				L1437,176.8z" style="fill:#E8E8E8;"/>
		</g>
	</g>
	<g>
		<g>
			<path d="M1313.9,177.7c0,31.9,0,63.7,0,95.6c0,1.9,3,1.9,3,0c0-31.9,0-63.7,0-95.6
				C1316.9,175.7,1313.9,175.7,1313.9,177.7L1313.9,177.7z" style="fill:#E8E8E8;"/>
		</g>
	</g>
	<g>
		<g>
			<path d="M1315.4,271.7c-38.1,0-76.3,0-114.4,0c-1.9,0-1.9,3,0,3c38.1,0,76.3,0,114.4,0
				C1317.3,274.7,1317.3,271.7,1315.4,271.7L1315.4,271.7z" style="fill:#E8E8E8;"/>
		</g>
	</g>
	<g>
		<g>
			<path d="M1328.8,177.7c0,31.6,0,63.1,0,94.7c0,1.9,3,1.9,3,0c0-31.6,0-63.1,0-94.7
				C1331.8,175.7,1328.8,175.7,1328.8,177.7L1328.8,177.7z" style="fill:#E8E8E8;"/>
		</g>
	</g>
	<g>
		<g>
			<path d="M1330.3,275.6c35.2,0,70.4,0,105.6,0c1.9,0,1.9-3,0-3c-35.2,0-70.4,0-105.6,0
				C1328.3,272.6,1328.3,275.6,1330.3,275.6L1330.3,275.6z" style="fill:#E8E8E8;"/>
		</g>
	</g>
	<g>
		<g>
			<path d="M1200.1,289.6c38.3,0,76.6,0,114.8,0c1.9,0,1.9-3,0-3c-38.3,0-76.6,0-114.8,0
				C1198.1,286.6,1198.1,289.6,1200.1,289.6L1200.1,289.6z" style="fill:#E8E8E8;"/>
		</g>
	</g>
	<g>
		<g>
			<path d="M1313.4,288.6c0,28.1,0,56.1,0,84.2c0,1.9,3,1.9,3,0c0-28.1,0-56.1,0-84.2
				C1316.4,286.6,1313.4,286.6,1313.4,288.6L1313.4,288.6z" style="fill:#E8E8E8;"/>
		</g>
	</g>
	<g>
		<g>
			<path d="M1328.3,290.8c0,27.3,0,54.6,0,82c0,1.9,3,1.9,3,0c0-27.3,0-54.6,0-82
				C1331.3,288.8,1328.3,288.8,1328.3,290.8L1328.3,290.8z" style="fill:#E8E8E8;"/>
		</g>
	</g>
	<g>
		<g>
			<path d="M1329.4,292.7c36.1,0,72.2,0,108.3,0c1.9,0,1.9-3,0-3c-36.1,0-72.2,0-108.3,0
				C1327.4,289.7,1327.4,292.7,1329.4,292.7L1329.4,292.7z" style="fill:#E8E8E8;"/>
		</g>
	</g>
	<g>
		<g>
			<path d="M1404.2,178.4c-22.5,25.4-43.6,52-63.4,79.6c-1.1,1.6,1.5,3.1,2.6,1.5c19.6-27.4,40.6-53.8,62.9-79
				C1407.6,179.1,1405.5,177,1404.2,178.4L1404.2,178.4z" style="fill:#E8E8E8;"/>
		</g>
	</g>
	<g>
		<g>
			<path d="M1404,215.4c-10.4,12.6-20.8,25.2-31.2,37.7c-1.2,1.5,0.9,3.6,2.1,2.1c10.4-12.6,20.8-25.2,31.2-37.7
				C1407.3,216,1405.2,213.9,1404,215.4L1404,215.4z" style="fill:#E8E8E8;"/>
		</g>
	</g>
	<g>
		<g>
			<path d="M1211.6,371.6c26.2-26.2,52.4-52.5,78.6-78.7c1.4-1.4-0.8-3.5-2.1-2.1c-26.2,26.2-52.4,52.5-78.6,78.7
				C1208.2,370.8,1210.3,372.9,1211.6,371.6L1211.6,371.6z" style="fill:#E8E8E8;"/>
		</g>
	</g>
	<g>
		<g>
			<path d="M1256.9,362.5c8.9-11.4,18.3-22.2,28.4-32.5c1.4-1.4-0.8-3.5-2.1-2.1c-10.1,10.3-19.6,21.1-28.4,32.5
				C1253.6,361.8,1255.7,364,1256.9,362.5L1256.9,362.5z" style="fill:#E8E8E8;"/>
		</g>
	</g>
	<g>
		<g>
			<path d="M1176,490.2c35.3,0,70.7,0,106,0c1.9,0,1.9-3,0-3c-35.3,0-70.7,0-106,0
				C1174.1,487.2,1174.1,490.2,1176,490.2L1176,490.2z" style="fill:#E8E8E8;"/>
		</g>
	</g>
	<g>
		<g>
			<path d="M1227.8,490c0,6.7,0,13.3,0,20c0,1.9,3,1.9,3,0c0-6.7,0-13.3,0-20C1230.8,488.1,1227.8,488.1,1227.8,490
				L1227.8,490z" style="fill:#E8E8E8;"/>
		</g>
	</g>
	<g>
		<g>
			<path d="M1229.3,511.5c27.8,0,55.6,0,83.3,0c1.9,0,1.9-3,0-3c-27.8,0-55.6,0-83.3,0
				C1227.4,508.5,1227.4,511.5,1229.3,511.5L1229.3,511.5z" style="fill:#E8E8E8;"/>
		</g>
	</g>
	<g>
		<g>
			<path d="M1281.8,489.3c0,6.4,0,12.9,0,19.3c0,1.9,3,1.9,3,0c0-6.4,0-12.9,0-19.3
				C1284.8,487.4,1281.8,487.4,1281.8,489.3L1281.8,489.3z" style="fill:#E8E8E8;"/>
		</g>
	</g>
	<g>
		<g>
			<path d="M1177.5,488c0-5.3,0-10.7,0-16c0-1.9-3-1.9-3,0c0,5.3,0,10.7,0,16C1174.5,489.9,1177.5,489.9,1177.5,488
				L1177.5,488z" style="fill:#E8E8E8;"/>
		</g>
	</g>
	<g>
		<g>
			<path d="M1177.3,472.8c25.8,0,51.6,0,77.3,0c1.9,0,1.9-3,0-3c-25.8,0-51.6,0-77.3,0
				C1175.4,469.8,1175.4,472.8,1177.3,472.8L1177.3,472.8z" style="fill:#E8E8E8;"/>
		</g>
	</g>
	<g>
		<g>
			<path d="M1253.8,473.3c0,5.1,0,10.2,0,15.3c0,1.9,3,1.9,3,0c0-5.1,0-10.2,0-15.3
				C1256.8,471.4,1253.8,471.4,1253.8,473.3L1253.8,473.3z" style="fill:#E8E8E8;"/>
		</g>
	</g>
	<g>
		<g>
			<path d="M1160,512.2c24.7,0,49.3,0,74,0c1.9,0,1.9-3,0-3c-24.7,0-49.3,0-74,0C1158.1,509.2,1158.1,512.2,1160,512.2
				L1160,512.2z" style="fill:#E8E8E8;"/>
		</g>
	</g>
	<g>
		<g>
			<path d="M1157.8,512c0,5.6,0,11.1,0,16.7c0,1.9,3,1.9,3,0c0-5.6,0-11.1,0-16.7C1160.8,510.1,1157.8,510.1,1157.8,512
				L1157.8,512z" style="fill:#E8E8E8;"/>
		</g>
	</g>
	<g>
		<g>
			<path d="M1159.3,531.5c23.6,0,47.1,0,70.7,0c1.9,0,1.9-3,0-3c-23.6,0-47.1,0-70.7,0
				C1157.4,528.5,1157.4,531.5,1159.3,531.5L1159.3,531.5z" style="fill:#E8E8E8;"/>
		</g>
	</g>
	<g>
		<g>
			<path d="M1228.5,512c0,5.8,0,11.6,0,17.3c0,1.9,3,1.9,3,0c0-5.8,0-11.6,0-17.3C1231.5,510.1,1228.5,510.1,1228.5,512
				L1228.5,512z" style="fill:#E8E8E8;"/>
		</g>
	</g>
	<g>
		<g>
			<path d="M664.8,446.1c43.6,0,87.1,0,130.7,0c1.9,0,1.9-3,0-3c-43.6,0-87.1,0-130.7,0
				C662.9,443.1,662.9,446.1,664.8,446.1L664.8,446.1z" style="fill:#E8E8E8;"/>
		</g>
	</g>
	<g>
		<g>
			<path d="M665.7,444.6c0-5.6,0-11.2,0-16.8c0-1.9-3-1.9-3,0c0,5.6,0,11.2,0,16.8C662.7,446.5,665.7,446.5,665.7,444.6
				L665.7,444.6z" style="fill:#E8E8E8;"/>
		</g>
	</g>
	<g>
		<g>
			<path d="M665.9,427.5c23.3,0,46.7,0,70,0c1.9,0,1.9-3,0-3c-23.3,0-46.7,0-70,0C664,424.5,664,427.5,665.9,427.5
				L665.9,427.5z" style="fill:#E8E8E8;"/>
		</g>
	</g>
	<g>
		<g>
			<path d="M734.4,427.8c0,5.4,0,10.8,0,16.2c0,1.9,3,1.9,3,0c0-5.4,0-10.8,0-16.2C737.4,425.8,734.4,425.8,734.4,427.8
				L734.4,427.8z" style="fill:#E8E8E8;"/>
		</g>
	</g>
	<g>
		<g>
			<path d="M715.3,446.9c0,5.6,0,11.2,0,16.8c0,1.9,3,1.9,3,0c0-5.6,0-11.2,0-16.8C718.3,444.9,715.3,444.9,715.3,446.9
				L715.3,446.9z" style="fill:#E8E8E8;"/>
		</g>
	</g>
	<g>
		<g>
			<path d="M717.4,466.3c25.4,0,50.9,0,76.3,0c1.9,0,1.9-3,0-3c-25.4,0-50.9,0-76.3,0
				C715.5,463.3,715.5,466.3,717.4,466.3L717.4,466.3z" style="fill:#E8E8E8;"/>
		</g>
	</g>
	<g>
		<g>
			<path d="M794,446.3c0,6.4,0,12.7,0,19.1c0,1.9,3,1.9,3,0c0-6.4,0-12.7,0-19.1C797,444.4,794,444.4,794,446.3
				L794,446.3z" style="fill:#E8E8E8;"/>
		</g>
	</g>
	<g>
		<g>
			<path d="M733.8,465.9c0,5.2,0,10.4,0,15.6c0,1.9,3,1.9,3,0c0-5.2,0-10.4,0-15.6C736.8,464,733.8,464,733.8,465.9
				L733.8,465.9z" style="fill:#E8E8E8;"/>
		</g>
	</g>
	<g>
		<g>
			<path d="M734.2,481.2c-22.2,0-44.3,0-66.5,0c-1.9,0-1.9,3,0,3c22.2,0,44.3,0,66.5,0
				C736.1,484.2,736.1,481.2,734.2,481.2L734.2,481.2z" style="fill:#E8E8E8;"/>
		</g>
	</g>
	<g>
		<g>
			<path d="M720.3,463.9c-17.4,0-34.7,0-52.1,0c-1.9,0-1.9,3,0,3c17.4,0,34.7,0,52.1,0
				C722.2,466.9,722.2,463.9,720.3,463.9L720.3,463.9z" style="fill:#E8E8E8;"/>
		</g>
	</g>
	<g>
		<g>
			<path d="M666.8,465.4c0,5.6,0,11.2,0,16.8c0,1.9,3,1.9,3,0c0-5.6,0-11.2,0-16.8C669.8,463.4,666.8,463.4,666.8,465.4
				L666.8,465.4z" style="fill:#E8E8E8;"/>
		</g>
	</g>
	<g>
		<g>
			<path d="M1358.4,691.3c27.5,0,55,0,82.5,0c1.9,0,1.9-3,0-3c-27.5,0-55,0-82.5,0
				C1356.5,688.3,1356.5,691.3,1358.4,691.3L1358.4,691.3z" style="fill:#E8E8E8;"/>
		</g>
	</g>
	<g>
		<g>
			<path d="M1407.5,689c0-6.2,0-12.4,0-18.6c0-1.9-3-1.9-3,0c0,6.2,0,12.4,0,18.6C1404.5,690.9,1407.5,690.9,1407.5,689
				L1407.5,689z" style="fill:#E8E8E8;"/>
		</g>
	</g>
	<g>
		<g>
			<path d="M1406.8,671.5c23.5,0,47,0,70.6,0c1.9,0,1.9-3,0-3c-23.5,0-47,0-70.6,0
				C1404.8,668.5,1404.8,671.5,1406.8,671.5L1406.8,671.5z" style="fill:#E8E8E8;"/>
		</g>
	</g>
	<g>
		<g>
			<path d="M1475.8,670.8c0,5.3,0,10.6,0,15.9c0,1.9,3,1.9,3,0c0-5.3,0-10.6,0-15.9
				C1478.8,668.8,1475.8,668.8,1475.8,670.8L1475.8,670.8z" style="fill:#E8E8E8;"/>
		</g>
	</g>
	<g>
		<g>
			<path d="M1438.9,690.9c12.4,0,24.8,0,37.3,0c1.9,0,1.9-3,0-3c-12.4,0-24.8,0-37.3,0
				C1436.9,687.9,1436.9,690.9,1438.9,690.9L1438.9,690.9z" style="fill:#E8E8E8;"/>
		</g>
	</g>
	<g>
		<g>
			<path d="M1355.3,691.4c0,4.8,0,9.5,0,14.3c0,1.9,3,1.9,3,0c0-4.8,0-9.5,0-14.3
				C1358.3,689.5,1355.3,689.4,1355.3,691.4L1355.3,691.4z" style="fill:#E8E8E8;"/>
		</g>
	</g>
	<g>
		<g>
			<path d="M1357.2,708.7c26,0,52.1,0,78.1,0c1.9,0,1.9-3,0-3c-26,0-52.1,0-78.1,0
				C1355.3,705.7,1355.3,708.7,1357.2,708.7L1357.2,708.7z" style="fill:#E8E8E8;"/>
		</g>
	</g>
	<g>
		<g>
			<path d="M1434.6,690.2c0,5.4,0,10.8,0,16.3c0,1.9,3,1.9,3,0c0-5.4,0-10.8,0-16.3
				C1437.6,688.3,1434.6,688.3,1434.6,690.2L1434.6,690.2z" style="fill:#E8E8E8;"/>
		</g>
	</g>
	<g>
		<g>
			<path d="M1366.3,647.3c25.2,0,50.5,0,75.7,0c1.9,0,1.9-3,0-3c-25.2,0-50.5,0-75.7,0
				C1364.4,644.3,1364.4,647.3,1366.3,647.3L1366.3,647.3z" style="fill:#E8E8E8;"/>
		</g>
	</g>
	<g>
		<g>
			<path d="M1440.5,647c0,7.7,0,15.3,0,23c0,1.9,3,1.9,3,0c0-7.7,0-15.3,0-23C1443.5,645,1440.5,645,1440.5,647
				L1440.5,647z" style="fill:#E8E8E8;"/>
		</g>
	</g>
	<g>
		<g>
			<path d="M1365.6,646.2c0,7.1,0,14.3,0,21.4c0,1.9,3,1.9,3,0c0-7.1,0-14.3,0-21.4
				C1368.6,644.3,1365.6,644.3,1365.6,646.2L1365.6,646.2z" style="fill:#E8E8E8;"/>
		</g>
	</g>
	<g>
		<g>
			<path d="M1369.1,670.7c17.8,0,35.7,0,53.5,0c1.9,0,1.9-3,0-3c-17.8,0-35.7,0-53.5,0
				C1367.2,667.7,1367.2,670.7,1369.1,670.7L1369.1,670.7z" style="fill:#E8E8E8;"/>
		</g>
	</g>
</g>
<g id="ground">
	<g>
		<g>
			<path d="M533.6,960.6c16.4,0,32.8,0,49.2,0c1.9,0,1.9-3,0-3c-16.4,0-32.8,0-49.2,0
				C531.7,957.6,531.7,960.6,533.6,960.6L533.6,960.6z" style="fill:#161616;"/>
		</g>
	</g>
	<g>
		<g>
			<path d="M407.5,960.8c143.1,0,286.1,0,429.2,0c142.3,0,284.7,0,427,0c80.3,0,160.6,0,240.9,0c3.9,0,3.9-6,0-6
				c-143.1,0-286.1,0-429.2,0c-142.3,0-284.7,0-427,0c-80.3,0-160.6,0-240.9,0C403.6,954.8,403.6,960.8,407.5,960.8L407.5,960.8z" style="fill:#161616;"/>
		</g>
	</g>
	<g>
		<g>
			<path d="M1312.9,981c69.4,0,138.7,0,208.1,0c3.9,0,3.9-6,0-6c-69.4,0-138.7,0-208.1,0
				C1309.1,975,1309.1,981,1312.9,981L1312.9,981z" style="fill:#161616;"/>
		</g>
	</g>
	<g>
		<g>
			<path d="M599.2,1056.6c77.8,0,155.5,0,233.3,0c3.9,0,3.9-6,0-6c-77.8,0-155.5,0-233.3,0
				C595.3,1050.6,595.3,1056.6,599.2,1056.6L599.2,1056.6z" style="fill:#161616;"/>
		</g>
	</g>
	<g>
		<g>
			<path d="M178,1027.3c51.9,0,103.8,0,155.7,0c3.9,0,3.9-6,0-6c-51.9,0-103.8,0-155.7,0
				C174.1,1021.3,174.1,1027.3,178,1027.3L178,1027.3z" style="fill:#161616;"/>
		</g>
	</g>
	<g>
		<g>
			<path d="M366.5,1000c56.9,0,113.8,0,170.7,0c3.9,0,3.9-6,0-6c-56.9,0-113.8,0-170.7,0
				C362.6,994,362.6,1000,366.5,1000L366.5,1000z" style="fill:#161616;"/>
		</g>
	</g>
</g>
<g id="rope">
	<g>
		<g>
			<path d="M329.9,919c76.8-42.1,150.1-90.4,221.8-140.7c71.8-50.4,142.3-102.8,214-153.4
				c40.2-28.3,80.8-56.1,122.2-82.6c1.6-1,0.1-3.6-1.5-2.6c-73.9,47.3-145.1,98.6-216.2,150c-71,51.4-142,103-215.5,150.7
				c-41.2,26.7-83.1,52.3-126.2,75.9C326.7,917.3,328.2,919.9,329.9,919L329.9,919z" style="fill:#161616;"/>
		</g>
	</g>
</g>
<g id="dog">
	<path d="M274.3,898.4c-6,3.3-10,7.6-12.1,9.9c-3.2,3.5-5.4,5.8-7.1,9.3c-2.6,5.6-2.3,11.9-1.5,24.3
		c0.6,9.2,1.2,8.3,0.8,10.4c-2.2,11.4-14.7,13.5-14.4,21.2c0.2,4.8,5,8.7,9.1,10.1c6.3,2.2,13.9-0.6,18.4-7.1
		c-4.8,2.4-11.8,7-16.2,15.2c-1.6,3-3.7,6.9-2.3,8.8c2.4,3.3,13.3-0.6,23-4.8c-0.5,2.3-0.6,5.1,1,7.1c3.9,4.9,15.4,1,18.4,0
		c3.4-1.2,3.9-1.8,19.2-11.4c8-5,10.8-6.7,15.4-10.1c3.9-2.9,6.9-5.4,9.1-7.3c7.2,0.2,15.9-0.2,25.5-2c18.1-3.5,32-10.6,40.9-16.2
		c0.7,2.9,1.3,5.9,2,8.8c-8.7,5.4-15.4,9.4-20,12.1c-2.9,1.7-5.9,3.5-5.6,4.8c0.5,1.9,7.3,1.8,11.6,1.8c4.8,0,8.8-0.6,11.6-1
		c0.2,0.7,0.9,2.6,2.8,3.5c2.8,1.5,6.4-0.2,6.3-0.5c0-0.2-1.5-0.2-1.5-0.3c0-0.2,10.9-0.2,18.4-0.8c6.3-0.5,15.5-1.7,26.8-5.3
		c1.9-7.7,2.3-13.7,2.3-17.9c0-3.1-0.2-4.7,0.3-7.8c0.9-6.1,2.8-8.1,3.8-12.6c0.7-3,0.9-7.5-1-13.4c3.3-1.3,5.5-3.1,6.8-4.3
		c0.3-0.3,7.1-6.9,6.3-15.9c-0.2-1.9-0.4-4.4-2-5.3c-2.6-1.4-7.1,2.2-9.3,4.8c-3.9,4.5-4.1,10.1-4,12.6c-2.7-4.2-8.1-11.4-17.4-15.9
		c-3.7-1.8-7.4-2.9-11.4-3.5c-18.8-3.2-40.9,3.3-54.8,8.3c-18.2,6.6-26.9,12.3-38.1,10.4c-3.4-0.6-10.8-1.9-15.9-7.6
		c-2-2.2-2.2-3.5-4.8-6.6c-0.9-1.1-5.6-6.6-11.6-9.3C290.9,889.3,277.1,896.9,274.3,898.4z" style="fill:#FFFFFF;"/>
	<g>
		<g>
			<path d="M325.5,916.5c-2.3,5.3-5.5,10.1-9.5,14.4c-1.3,1.4,0.8,3.5,2.1,2.1c4.2-4.4,7.5-9.4,9.9-15
				C328.9,916.2,326.3,914.7,325.5,916.5L325.5,916.5z" style="fill:#333333;"/>
		</g>
	</g>
	<g>
		<g>
			<path d="M326.9,917.7c-2.3,6.4-5.8,12-10.5,16.8c-1.3,1.4,0.8,3.5,2.1,2.1c5.1-5.2,8.8-11.3,11.3-18.1
				C330.4,916.7,327.5,915.9,326.9,917.7L326.9,917.7z" style="fill:#333333;"/>
		</g>
	</g>
	<g>
		<g>
			<path d="M277.6,921.9c1.9,12.2,3.7,24.8,9.6,35.9c4.2,8,13,15.6,22.4,10.7c9.3-4.9,10.6-16.9,10-26.3
				c-0.7-10.3-4.3-20.2-11.8-27.5c-1.4-1.3-3.5,0.8-2.1,2.1c6.3,6.2,9.7,14.4,10.7,23.1c1,8.9,0.7,21.8-8.7,26.2
				c-11.4,5.2-18.5-9.8-21.3-18.2c-3-8.7-4.4-17.7-5.7-26.8C280.2,919.2,277.3,920,277.6,921.9L277.6,921.9z" style="fill:#161616;"/>
		</g>
	</g>
	<g>
		<g>
			<path d="M273.8,896.8c-11.3,7.9-21.6,18.1-23.1,32.5c-0.3,3.4-0.1,6.8,0.7,10c1.2,4.7,3.8,8.6,1,13.4
				c-4.4,7.6-10.7,14.7-15.9,21.8c-1.1,1.6,1.5,3.1,2.6,1.5c4.9-6.7,10-13.3,14.7-20.1c4-5.7,2.9-9.5,1-15.9
				c-5.4-17.3,7.5-31.6,20.6-40.7C276.9,898.3,275.4,895.7,273.8,896.8L273.8,896.8z" style="fill:#161616;"/>
		</g>
	</g>
	<g>
		<g>
			<path d="M236.4,977.1c4.2,3.8,8.8,7.9,14.7,8.5c5.4,0.5,10.6-2.4,14.8-5.4c9.5-6.7,16.3-16.2,20.7-26.9
				c0.7-1.8-2.2-2.6-2.9-0.8c-3.5,8.6-8.9,16.5-16,22.5c-4,3.3-9.2,7.3-14.6,7.6c-5.9,0.4-10.6-4-14.6-7.7
				C237.1,973.7,235,975.8,236.4,977.1L236.4,977.1z" style="fill:#161616;"/>
		</g>
	</g>
	<g>
		<g>
			<path d="M255.6,941.7c1.5,2.8,3.2,5.4,5.3,7.7c1.3,1.5,3.4-0.7,2.1-2.1c-1.9-2.2-3.5-4.6-4.8-7.1
				C257.2,938.5,254.7,940,255.6,941.7L255.6,941.7z" style="fill:#161616;"/>
		</g>
	</g>
	<g>
		<g>
			<path d="M241,971.8c2,2.3,2.6,5.2,2.3,8.1c-0.2,1.9,2.8,1.9,3,0c0.4-3.7-0.7-7.4-3.2-10.2
				C241.8,968.3,239.7,970.4,241,971.8L241,971.8z" style="fill:#161616;"/>
		</g>
	</g>
	<g>
		<g>
			<path d="M238.3,976.2c1.2,0.9,2.3,1.9,3.5,2.8c1.2,1,3.4-0.3,2.4-1.8c-0.8-1.2-1.3-2.6-1.3-4.1
				c-0.9,0.3-1.9,0.5-2.8,0.8c0.3,0.4,0.6,0.8,0.8,1.2c1.1,1.6,3.7,0.1,2.6-1.5c-0.3-0.4-0.6-0.8-0.8-1.2c-0.8-1.1-2.8-0.8-2.8,0.8
				c0,2,0.6,3.9,1.7,5.6c0.8-0.6,1.6-1.2,2.4-1.8c-1.2-0.9-2.3-1.9-3.5-2.8c-0.6-0.5-1.5-0.6-2.1,0
				C237.8,974.6,237.7,975.7,238.3,976.2L238.3,976.2z" style="fill:#161616;"/>
		</g>
	</g>
	<g>
		<g>
			<path d="M297.7,894.6c8.6,2.1,14.4,8.7,19.6,15.4c5,6.3,8.4,9.7,16.8,9.2c17.4-1.1,34-7.7,50.5-12.7
				c17-5.1,38.5-10.7,55.3-2.1c17.4,8.9,23.9,30.3,15.2,47.6c-0.9,1.7,1.7,3.2,2.6,1.5c12.5-25-4.1-53.1-31.3-56
				c-31.2-3.3-59.4,15.2-89.8,18.4c-5.7,0.6-10.5,0.3-14.5-4.5c-2.4-2.9-4.6-6-7.1-8.8c-4.6-5.1-9.9-9.3-16.7-11
				C296.6,891.2,295.8,894.1,297.7,894.6L297.7,894.6z" style="fill:#161616;"/>
		</g>
	</g>
	<g>
		<g>
			<path d="M425.4,923.2c-7.8,6.2-13.5,14.3-12.9,24.7c0.6,9.2,6.1,17.1,14.3,21.3c1.7,0.9,3.2-1.7,1.5-2.6
				c-7.7-4-12.9-11.5-12.8-20.4c0.1-9,5.3-15.6,12-20.9C429,924.2,426.9,922,425.4,923.2L425.4,923.2z" style="fill:#161616;"/>
		</g>
	</g>
	<g>
		<g>
			<path d="M427,968.4c-5.6,1.7-11.1,3.7-16.5,6.1c-3,1.4-10.4,3.4-11.4,7.1c-2.1,7.8,17.3,4.7,20.2,4.5
				c5.8-0.4,11.6-1,17.4-1.9c5.1-0.8,12-0.9,16.6-3.4c3.5-1.8,3.2-5.7,3.4-9.2c0.5-6.9,1.1-13.7,1.6-20.6c0.2-1.9-2.8-1.9-3,0
				c-0.3,4.4-0.7,8.7-1,13.1c-0.3,4,0.6,12-3.3,14.3c-2.7,1.6-7.4,1.6-10.5,2.1c-4.9,0.8-9.7,1.5-14.7,2c-4.1,0.4-8.2,0.7-12.3,0.8
				c-2.2,0.1-4.4,0.3-6.6,0.2c-1.9-0.1-5.1,0.6-3.8-2.1c0.6-1.1,4.4-2.4,5.6-2.9c2.3-1.1,4.7-2.2,7.1-3.2c3.9-1.6,7.9-2.9,11.9-4.1
				C429.7,970.7,428.9,967.8,427,968.4L427,968.4z" style="fill:#161616;"/>
		</g>
	</g>
	<g>
		<g>
			<path d="M317.1,947.9c0.7,16.7-13,27.9-26.4,35.1c-5.7,3-27.2,9.8-19.6,20c6.7,9,23.2-0.3,30.5-4.2
				c12.6-6.7,23.6-15.8,34.6-24.9c1.5-1.2-0.6-3.3-2.1-2.1c-9.5,7.8-19,15.7-29.6,21.9c-5.4,3.2-11.1,6-17.1,8
				c-3.4,1.1-7.9,2.9-11.3,1.2c-7-3.4-1.2-8.5,2.8-10.7c18-9.5,42.3-20.1,41.2-44.4C320,946,317,946,317.1,947.9L317.1,947.9z" style="fill:#161616;"/>
		</g>
	</g>
	<g>
		<g>
			<path d="M258.7,941.8c0.5-3.4,2.3-6.5,5.4-8.1c1.7-0.9,0.2-3.5-1.5-2.6c-3.8,2-6.2,5.8-6.8,9.9
				C255.5,942.9,258.4,943.7,258.7,941.8L258.7,941.8z" style="fill:#161616;"/>
		</g>
	</g>
	<g>
		<g>
			<path d="M271.2,970.4c-1.6,3-4.6,4.7-7.2,6.8c-2.7,2.2-5.3,4.6-7.8,7.1c-3,3.1-9.7,8.5-10,13.2
				c-0.7,11.6,20.9,1.6,25,0.3c1.8-0.6,1-3.5-0.8-2.9c-4.5,1.5-8.9,3.1-13.5,4.4c-1.3,0.5-2.7,0.8-4,0.9c-2.5-2.9-2.6-5.4-0.5-7.3
				c1-1.7,2.8-3.2,4.1-4.6c3-3.2,6.2-6.2,9.6-9c2.8-2.3,5.9-4.1,7.6-7.4C274.7,970.2,272.1,968.7,271.2,970.4L271.2,970.4z" style="fill:#161616;"/>
		</g>
	</g>
	<g>
		<g>
			<path d="M335.9,975c28.1,0.1,55.7-8.6,78.6-24.9c1.6-1.1,0.1-3.7-1.5-2.6c-22.5,16-49.4,24.6-77.1,24.5
				C334,971.9,334,974.9,335.9,975L335.9,975z" style="fill:#161616;"/>
		</g>
	</g>
	<g>
		<g>
			<path d="M399,957.2c0.6,1.7,1.1,3.3,1.7,5c0.9,2.5,1.7,3.3-0.8,4.8c-3.1,1.9-6.8,3.3-10.1,4.9
				c-3.4,1.6-6.8,3.1-10.1,4.9c-1.6,0.8-3.1,1.7-3.8,3.4c-3.6,9.6,20,4.2,23.5,3.1c1.8-0.6,1-3.5-0.8-2.9c-2.7,0.9-5.5,1.6-8.3,1.9
				c-1.8,0.2-6.8,1.3-8.6,0.3c-4.8-2.7,2.9-4.9,4.5-5.7c2.5-1.2,5-2.5,7.6-3.7c2.8-1.4,9.6-3,10.9-6.1c1.2-2.8-2-8.2-2.9-10.8
				C401.3,954.6,398.4,955.4,399,957.2L399,957.2z" style="fill:#161616;"/>
		</g>
	</g>
	<g>
		<g>
			<path d="M458.5,918.7c-0.1-3.9,0.6-7.6,2.7-11c0.9-1.4,2.2-3.3,3.8-4c8.4-3.5,6.9,4.4,6.2,7.2
				c-1.8,6.4-6.8,11.6-12.3,15c-1.7,1-0.1,3.6,1.5,2.6c5.4-3.2,9.8-7.8,12.5-13.6c1.7-3.8,3.4-9.4,0.1-12.8c-3-3.1-7.8-2.3-10.9,0.1
				c-4.9,3.8-6.7,10.6-6.5,16.6C455.6,920.6,458.6,920.7,458.5,918.7L458.5,918.7z" style="fill:#161616;"/>
		</g>
	</g>
	<g>
		<g>
			<path d="M274.8,900.2c6.6-4.4,17.1-8.9,24.8-4.9c1.7,0.9,3.2-1.7,1.5-2.6c-8.8-4.6-20.2-0.1-27.8,4.9
				C271.7,898.6,273.2,901.2,274.8,900.2L274.8,900.2z" style="fill:#161616;"/>
		</g>
	</g>
	<path d="M308,914.5c3,1.2,10.6,4.6,16,12.8c2.3,3.5,8,12.2,4.8,22c-2.9,8.8-11.1,12.7-13,13.5c1.3-2.8,3.1-7.3,3.5-13
		c0.5-7.2-1.3-12.6-3.3-18.5C314.6,927,312.2,921.1,308,914.5z" style="opacity:9.000000e-002;fill:#6D6C6C;"/>
	<path d="M278,945.8c-2.8,10.9-8,18-10.8,21.8c-5.8,7.9-12.3,13.2-17.3,16.5c3.8-0.5,9.3-1.9,15-5.3
		c1.6-1,8.8-5.3,14.3-14.3c3-4.9,4.5-9.4,5.3-12.5c-1.7-9.4-3.3-18.8-5-28.3C280.1,928.6,280.4,936.5,278,945.8z" style="opacity:0.13;fill:#6D6C6C;"/>
	<path d="M451,911.8c0.9,4.7,1.9,12,0.5,20.8c-2.4,15.6-10.6,25.8-14.3,30.3c-11.7,14.3-26.2,20-33,22.3
		c15.8-0.5,28.6-1.9,38-3.3c6.4-0.9,10.5-1.7,13-5c4.2-5.6-0.8-11.6,1.5-25c1.5-9.1,4.2-9.7,4.5-16.3
		C461.5,929.6,459.7,921.6,451,911.8z" style="opacity:7.000000e-002;fill:#6D6C6C;"/>
	<path d="M401.3,957.5c0.7,1.1,3,4.8,1.8,8.3c-0.3,0.8-1.1,2.6-5.8,5c-8,4.2-12.5,2.5-16.3,6.8c-0.3,0.3-2.9,3.3-2,5.3
		c0.9,1.9,4.9,1.7,8.3,1.5c3.3-0.2,8-0.9,13.5-3c3.2-2.1,7.1-4.4,11.8-6.5c5.2-2.3,10-3.8,14-4.8c-0.4-1.3-1.3-3.2-2.8-5.3
		c-2.7-3.6-5.2-4.1-7.5-7.3c-1-1.4-2.3-3.7-2.8-7.3C409.4,952.7,405.3,955.1,401.3,957.5z" style="opacity:0.14;fill:#6D6C6C;"/>
	<path d="M470.5,902.5c-0.2,2.6-0.8,6.5-2.5,10.8c-3,7.7-7.5,11.8-6.8,12.5c0.6,0.6,5-2.1,7.8-6c2.3-3.3,2.9-6.5,3-7.5
		C472.7,907.6,471.2,903.9,470.5,902.5z" style="opacity:0.25;fill:#6D6C6C;"/>
</g>
<g id="guy">
	<g id="leg_back">
		<path d="M1096.6,891.2c22.6,21.2,45.1,42.5,67.7,63.7c-26.4,53.7-37,82.1-31.8,85.3c6.4,4,37.4-31.3,93.1-106.1
			c-38.4-28-76.8-56-115.2-84.1C1105.8,863.8,1101.2,877.5,1096.6,891.2z" style="fill:#191919;"/>
		<path d="M999.8,581.6c-8.4,12.8-3.6,24.5,1.2,68.7c4.9,44.8,0.8,40.1,4.8,71.1c6.8,52.4,21.8,90.3,33.8,120
			c0,0,16.9,42.1,50,80.8c0.9,1.1,3,3.3,6,5.4c3,2.1,9.4,6.5,16.9,5.4c7.9-1.1,13.9-7.8,16.3-13.9c2.7-6.9-0.5-10.1,3-15.7
			c2.6-4,4.9-3.4,11.5-8.4c4.6-3.6,10.5-8.1,13.3-15.7c3.1-8.6,0.7-16.4,0-18.7c-2.1-6.6-6.1-10.8-7.2-12.1
			c-4.9-5.3-12.5-20.2-27.7-50c-11.8-23-30.3-75.1-36.2-140.4c-5.2-58,3.8-78.5-12.7-91C1053.3,552.3,1013.7,560.4,999.8,581.6z" style="fill:#FFFFFF;"/>
		<g>
			<g>
				<path d="M1081.1,602.8c-0.9,34.8,3.4,69.5,10.9,103.5c7.3,33,16.7,66.3,29.7,97.5c6.6,16,14.8,31.3,25.5,44.9
					c1.2,1.5,3.3-0.6,2.1-2.1c-20-25.2-30.4-56.3-39.8-86.6c-10.2-32.7-18.3-66.1-22.5-100.2c-2.3-18.9-3.3-38-2.8-57
					C1084.2,600.8,1081.2,600.8,1081.1,602.8L1081.1,602.8z" style="fill:#161616;"/>
			</g>
		</g>
		<g>
			<g>
				<path d="M1000.2,647c0.2,53.5,7.3,107.3,24,158.3c8.2,25,18.7,49.4,31.8,72.2c6.6,11.6,13.9,22.9,21.9,33.7
					c6.7,9.1,14.6,19.2,26.2,22.1c10.7,2.7,21.4-1.6,25.6-12.1c4.3-10.9,1.4-25.1,10.4-33.9c1.4-1.4-0.7-3.5-2.1-2.1
					c-6.9,6.7-7.3,16.4-8.7,25.3c-0.7,4.4-1.5,9-3.9,12.8c-4,6.6-11.7,8.8-19,7.4c-13.1-2.5-21.6-15-28.8-25.1
					c-7.1-10-13.7-20.4-19.8-31.1c-24.7-43.8-40-92.5-47.9-142.1c-4.5-28.2-6.6-56.8-6.7-85.4C1003.2,645,1000.2,645,1000.2,647
					L1000.2,647z" style="fill:#161616;"/>
			</g>
		</g>
		<g>
			<g>
				<path d="M1144.8,845.9c8.1,9.6,14.4,22.1,10.1,34.8c-2.2,6.7-7.2,9.2-12.7,12.7c-4.8,3.1-8.8,7.2-12.1,11.9
					c-1.1,1.6,1.5,3.1,2.6,1.5c2.8-3.8,6-7.4,9.9-10.1c2.5-1.7,5.3-3,7.8-4.8c4.7-3.4,7.3-8.7,8.3-14.3c2.2-12.8-3.8-24.3-11.8-33.9
					C1145.7,842.3,1143.6,844.5,1144.8,845.9L1144.8,845.9z" style="fill:#161616;"/>
			</g>
		</g>
		<path d="M1002.1,644.7c-0.2,13.2,0.2,27,1.2,41.5c3.6,51.1,14.5,95.4,27,131.6c0,0,15.7,44.9,36.6,76.3
			c2.3,3.4,6.7,9.1,15.6,20.4c9.2,11.8,11.9,14.7,16.8,16.8c0.7,0.3,13.2,5.5,21.6-0.6c2.3-1.6,4.1-5.5,7.8-13.2
			c3.8-7.9,5.7-12.1,6.6-18c4.9-0.2,8.5-2.9,9-6c0.6-3.8-3.8-7-4.2-7.2c-6-4.1-14.3-0.7-18,0c-18.3,3.3-41.2-40.3-48.1-53.5
			c-28.5-55.3-42.8-82.9-52.9-113.5C1015.2,700.4,1007.9,675.2,1002.1,644.7z" style="opacity:0.16;fill:#6D6C6C;"/>
		<path d="M1015.3,761.3c0.9-0.3,2.5,4.2,18,35.4c30.2,60.7,37.4,69.5,45.1,76.3c9.2,8.2,25.7,19.4,54.1,24
			c0.3,1.8,3.9,21.6-7.8,30.6c-5.1,4-11,4.2-12.6,4.2c-18.1,0.6-36.9-24.1-53.5-53.5C1026.3,821.1,1012,762.4,1015.3,761.3z" style="opacity:0.13;fill:#6D6C6C;"/>
	</g>
	<g id="leg_front">
		<path d="M876.5,897.4c-13.4,28-26.7,55.9-40.1,83.9c-59.1-8.8-89.5-10.2-91-4.3c-1.9,7.3,41.3,26.1,129.4,56.3
			c15-45.1,30-90.2,44.9-135.4C905.4,897.8,891,897.6,876.5,897.4z" style="fill:#191919;"/>
		<path d="M995.4,572.4c-10.3,8.8-13.3,18.2-21.6,37.4c-12.8,29.5-27.3,58.3-40.3,87.8c-25.9,58.8-34.3,71.8-53.9,118
			c-11.3,26.6-11.2,28.5-17.3,39.6c-6.3,11.4-12.8,21-17.3,37.4c-2.7,9.8-3.3,17.1-0.7,24.5c1,2.9,4.1,12,12.2,15.1
			c5.2,2,10.5,0.8,16.5-0.7c4.9-1.2,8.8-2.9,11.5-4.3c1.8,2.3,5,5.7,10.1,7.9c9.5,4.3,18.6,1.4,23,0c2.6-0.8,12.3-4.2,19.4-13.7
			c4.9-6.5,6.3-13,7.2-16.5c3.6-14.9,11-28.6,15.8-43.2c2.6-8,7.6-20.2,41-69c36-52.6,37.8-49.5,55.4-78.4
			c19.1-31.4,29.8-48.6,34.5-74.8c3.8-21.2,9.4-52.3-9.2-70.7C1060.6,547.4,1017.9,553,995.4,572.4z" style="fill:#FFFFFF;"/>
		<g>
			<g>
				<path d="M1091.4,591.8c6.3,57.6-24.9,109.9-57.6,154.5c-16.6,22.6-34.1,44.5-49.2,68
					c-15.6,24.2-27.7,50.2-37.6,77.2c-5,13.7-8.2,31.3-21.7,39.5c-11.3,6.8-26.1,6.3-36.6-1.7c-1.5-1.2-3,1.4-1.5,2.6
					c17.9,13.5,43.4,6,53-13.6c6.3-12.9,10-27.3,15.3-40.6c6-14.9,12.8-29.6,20.6-43.6c29.4-52.3,73.6-95,99.6-149.4
					c13.8-29,22.3-60.8,18.7-93C1094.2,589.9,1091.2,589.8,1091.4,591.8L1091.4,591.8z" style="fill:#161616;"/>
			</g>
		</g>
		<g>
			<g>
				<path d="M993.8,563.4c-27.4,59.9-54.8,119.9-82.3,179.8c-13.8,30.3-27.7,60.5-41.5,90.8
					c-6.5,14.3-13.3,28.5-19.6,42.9c-5,11.3-9.8,24-7.9,36.5c1.6,10.1,7.9,20.8,19,21.6c8,0.6,16.1-3.2,23.5-5.6
					c8.7-2.8,17.5-5.7,26.2-8.5c1.8-0.6,1-3.5-0.8-2.9c-6.9,2.2-13.7,4.4-20.6,6.7c-7.2,2.3-14.4,5.2-21.8,6.8
					c-14.5,3-22.5-9.4-23-22.4c-0.5-14.4,6.7-28.3,12.5-41c6.4-13.9,12.7-27.8,19.1-41.8c25.5-55.7,51-111.4,76.4-167.1
					c14.4-31.5,28.8-63,43.2-94.4C997.2,563.1,994.6,561.6,993.8,563.4L993.8,563.4z" style="fill:#161616;"/>
			</g>
		</g>
		<g>
			<g>
				<path d="M884.6,930c1,0.6,2,1.3,2.9,2c0.6,0.5,1.5,0.6,2.1,0c0.5-0.5,0.6-1.6,0-2.1c-1.1-0.9-2.3-1.7-3.5-2.5
					C884.5,926.4,883,929,884.6,930L884.6,930z" style="fill:#161616;"/>
			</g>
		</g>
		<path d="M1047.2,554.6c-12.1,6-8.4,30.4-10.2,57.1c-1.3,19.7-4.6,25.7-50.5,130.4c-38.6,88.1-43.2,99.7-58.3,122.6
			c-18.7,28.3-37.5,49.6-51.1,63.7c3.2-0.2,6.4-0.4,9.6-0.6c2.1,2,5.5,4.6,10.2,6.6c2.3,1,12.6,5.4,23.4,1.8
			c10.6-3.5,15.8-12.7,19.8-19.8c6-10.7,7.6-20.2,8.4-24.6c2.2-11.7,9.1-25,22.8-51.7c18.5-35.9,36.5-50.6,69.7-99.7
			c27.2-40.4,42.2-63.1,49.3-97.3c5.7-27.3,4-50.8,1.8-66.1C1077.4,563.1,1058.6,548.9,1047.2,554.6z" style="opacity:9.000000e-002;fill:#6D6C6C;"/>
		<path d="M1090.4,624.9c-1.7-0.7-10.1,19.5-27,49.3c-23.3,40.8-31.4,44.6-62.5,91.3c-31.4,47.2-30.9,55.1-63.7,103.3
			c-17,25-32,44.8-42.1,57.7c-2.9,4.7-2.4,6.9-1.8,7.8c2.5,4.3,15.1,1.4,21,0c7.6-1.8,11.5-2.7,15.6-5.4c8.7-5.7,10.6-14.6,16.8-33
			c3.3-9.9,7.5-19.5,10.8-29.4c7.2-21.2,17.4-36.1,34.2-60.1c57.6-81.9,57.4-77.3,67.3-95.5C1082.7,667.7,1092.8,625.9,1090.4,624.9
			z" style="opacity:0.16;fill:#6D6C6C;"/>
	</g>
	<g id="hand_back">
		<path d="M806.2,273.9c-2.6,4.4-3.1,8.6-3.3,10.5c-1,8.2,1.8,14.6,3,17.1c6.6,14.3,21.7,19.2,24.4,20
			c1.8,6.7,3.6,13.4,5.6,20.2c4.5,15.9,9.2,31.5,14,46.7c6.4-0.9,12.8-1.8,19.2-2.7c-1.8-8.5-4-15.3-5.6-19.8
			c-4.8-13.8-9.3-20.7-13.2-35.7c-1-4-1.7-7.4-2.1-9.5c1.6-1.1,3.8-3,5.9-5.7c8.3-10.8,6.3-24,5.9-26.8c-0.7-4.3-1.8-12.1-8.4-18.7
			c-8.4-8.5-19.2-8.7-20.8-8.7C821.1,260.5,811.1,265.5,806.2,273.9z" style="fill:#848484;"/>
		<path d="M812,282c-0.4,1.2-1.5,5.5-0.3,10.8c1.8,7.8,8,14.9,16.3,17.3c6.5,1.9,16.4,1.7,21.7-4.8
			c3.7-4.5,3.6-9.9,3.5-14.9c-0.1-5.6-0.3-14.2-7.1-19.8c-8.2-6.8-19.1-3.4-19.8-3.2C819.2,269.7,813.9,275.4,812,282z" style="fill:#FFFFFF;"/>
		<path d="M830.1,345.1c-0.3,1.5-0.7,3.7-0.7,6.2c0,1.2,0,4.5,1.2,9.5c0.8,3.1,1.3,3.9,4.6,11.9
			c3.6,8.7,4.3,11.1,7,12.2c1.8,0.8,3.7,0.5,4.9,0.2c-2.9-4.6-2.7-7.3-2-8.9c0.6-1.5,1.6-1.8,2.2-3.7c0.2-0.7,0.5-2-0.6-6.5
			c-1.1-4.4-1.6-4.4-1.9-7c-0.4-3,0.3-3.1-0.1-5.9c-0.1-0.5-0.5-3.2-2.2-6.3c-1.6-2.8-2.6-4.6-4.6-5.2
			C835.3,341,832.4,342.5,830.1,345.1z" style="fill:#FFFFFF;"/>
		<path d="M855,343.9c-2.5,2.5-6,7.2-4.6,9.7c1.2,2,5.4,2.2,7.5,2.3c1.5,0.1,2.7,0,3.6-0.1c0.4,1.1,0.8,2.1,1.1,3.2
			c2.8,8.2,5.2,16.3,7.2,24.3c0.3,1.1,0.6,2.2,0.8,3.2c-0.9,1.3-2.6,3.3-5.3,4.9c-3.7,2.1-7.2,2.4-8.9,2.4
			c1.9,4.6,4.7,10.4,8.9,16.7c1.2,1.8,4.7,7.1,10.5,13.4c5.5,6,11,12,19.8,17.2c11.9,7.1,23.1,8.7,29.3,9.5
			c9.3,1.2,16.6,0.7,20.3,0.3c3.2-0.3,15.9-1.9,30.6-9.4c13.7-7,22-15.4,28.3-21.9c4.9-5,13.3-13.9,20.6-28
			c5-9.8,6.9-17.1,10.5-31.4c5.1-20.2,7.6-30.3,2.6-34.9c-4.2-3.8-11.6-2.2-17.6-0.8c-9.9,2.2-16.6,7.5-24.7,14.1
			c-4.1,3.4-7.7,6.9-14.6,13.7c-14.6,14.4-15.5,16.7-23.5,23.3c-4.8,4-8.7,6.6-16.5,11.7c-15.6,10.4-20,11.3-23.4,11.5
			c-6.2,0.3-10.9-1.8-15.2-3.7c-12.8-5.8-18.9-16-20.8-19.2c-2.5-4.3-4.4-7.6-4.5-12.2c-0.1-5.3,2.2-7,2.3-13.5
			c0.1-3.8,0.2-9.1-3-11.8C871.3,334,860.7,338.3,855,343.9z" style="fill:#FFFFFF;"/>
		<g>
			<g>
				<path d="M875.3,369.2c9.4,16.2,23.9,33.2,44.7,30.7c1.9-0.2,1.9-3.2,0-3c-19.8,2.4-33.2-13.9-42.2-29.2
					C876.9,366,874.3,367.5,875.3,369.2L875.3,369.2z" style="fill:#161616;"/>
			</g>
		</g>
		<g>
			<g>
				<path d="M898.1,403.5c13.2,1.2,25.4-4.5,36.5-10.9c11.5-6.6,22.1-14.6,31.7-23.8c19.2-18.5,39.2-48.3,69.9-42.8
					c1.9,0.3,2.7-2.6,0.8-2.9c-27.3-4.9-47.5,17-64.4,34.9c-9.9,10.5-20.6,20.1-32.8,27.9c-12.4,8-26.5,15.9-41.7,14.6
					C896.2,400.3,896.2,403.3,898.1,403.5L898.1,403.5z" style="fill:#161616;"/>
			</g>
		</g>
		<g>
			<g>
				<path d="M851.3,388.6c14.7,27.9,32.8,55.4,65.7,62.4c30.3,6.5,61.1-4.5,83.3-25.3c13-12.2,23-27.2,30.2-43.4
					c0.8-1.7-1.8-3.3-2.6-1.5c-12.1,27-32.6,51.6-60.6,62.8c-28.2,11.2-61.7,7.6-84.1-13.7c-12.6-12-21.2-27.5-29.3-42.8
					C853,385.3,850.4,386.9,851.3,388.6L851.3,388.6z" style="fill:#161616;"/>
			</g>
		</g>
		<g>
			<g>
				<path d="M859.4,339.7c-5.1,2.2-12.3,8.9-9.5,15.2c3.1,6.8,14.1,0.9,18-2c1.5-1.1,0-3.7-1.5-2.6
					c-2.3,1.7-13,8.1-14,2.2c-0.8-4.4,5.2-8.7,8.6-10.2C862.7,341.5,861.1,338.9,859.4,339.7L859.4,339.7z" style="fill:#161616;"/>
			</g>
		</g>
		<g>
			<g>
				<path d="M860,342.5c3.8-2.9,9.8-7.5,14.6-3.3c3.9,3.5,3.1,9.6,2.4,14.1c-0.9,5.8-3.2,13.9,0.5,19.1
					c1.1,1.6,3.7,0.1,2.6-1.5c-3.6-5.1-0.3-14.3,0.3-19.9c0.5-4.2,0.3-8.5-2.1-12c-5.2-7.6-14-3.5-19.8,0.9
					C857,341.1,858.5,343.7,860,342.5L860,342.5z" style="fill:#161616;"/>
			</g>
		</g>
		<g>
			<g>
				<path d="M858.3,355.8c3.4,10.1,6.5,20.3,9.5,30.6c0.3-0.6,0.7-1.2,1-1.8c-6.8,1.6-13.8-0.1-20.2,3.2
					c0.7,0.3,1.5,0.6,2.2,0.9c-1.2-4.3-2.7-8.6-4.2-12.8c-0.7-1.8-3.6-1-2.9,0.8c1.6,4.2,3,8.5,4.2,12.8c0.3,1,1.3,1.3,2.2,0.9
					c6-3.1,13.1-1.4,19.5-2.9c0.8-0.2,1.3-1.1,1-1.8c-3-10.3-6.1-20.4-9.5-30.6C860.6,353.1,857.7,353.9,858.3,355.8L858.3,355.8z" style="fill:#161616;"/>
			</g>
		</g>
		<g>
			<g>
				<path d="M849,389.7c4.4,7.2,18.1,4.5,21.2-2.7c0.8-1.8-1.8-3.3-2.6-1.5c-2.1,5-12.8,8-16.1,2.7
					C850.6,386.5,848,388,849,389.7L849,389.7z" style="fill:#161616;"/>
			</g>
		</g>
		<g>
			<g>
				<path d="M851.7,390.6c5.1,1.1,10.1,0.8,15-1c1.8-0.7,1-3.6-0.8-2.9c-4.4,1.6-8.9,1.9-13.4,1
					C850.6,387.3,849.8,390.2,851.7,390.6L851.7,390.6z" style="fill:#161616;"/>
			</g>
		</g>
		<g>
			<g>
				<path d="M850.8,390.1c3.6-5.5,10.4-7,16-3.7c1.7,1,3.2-1.6,1.5-2.6c-7.2-4.1-15.6-2.1-20.2,4.8
					C847.1,390.2,849.7,391.8,850.8,390.1L850.8,390.1z" style="fill:#161616;"/>
			</g>
		</g>
		<g>
			<g>
				<path d="M856.3,388.3c1.2-3.8,6.3-1.7,8.7-0.6c1.7,0.8,3.3-1.8,1.5-2.6c-4.3-2-11.2-3.7-13.1,2.4
					C852.9,389.4,855.8,390.2,856.3,388.3L856.3,388.3z" style="fill:#161616;"/>
			</g>
		</g>
		<g>
			<g>
				<path d="M843.8,383.6c-2.6-1.7-4.3-4.6-4.2-7.8c0.1-1.4,0.5-2.7,1.1-3.9c0.3-0.5,3.1-4.1,3.8-3.6
					c1.5,1.2,3.6-0.9,2.1-2.1c-3.8-3-8.4,3.1-9.4,6.4c-1.7,5.3,0.6,10.6,5.1,13.6C843.9,387.2,845.4,384.6,843.8,383.6L843.8,383.6z
					" style="fill:#161616;"/>
			</g>
		</g>
		<g>
			<g>
				<path d="M844.7,377.8c4.4-2.5,5.1-8.4,1.2-11.7c-1.5-1.2-3.6,0.9-2.1,2.1c2.4,2,2.2,5.4-0.6,7
					C841.5,376.2,843,378.8,844.7,377.8L844.7,377.8z" style="fill:#161616;"/>
			</g>
		</g>
		<g>
			<g>
				<path d="M840.4,384.5c2.2,2.2,5.7,2.7,8.3,1c1.6-1,0.1-3.6-1.5-2.6c-1.5,1-3.4,0.8-4.7-0.5
					C841.2,381,839.1,383.1,840.4,384.5L840.4,384.5z" style="fill:#161616;"/>
			</g>
		</g>
		<g>
			<g>
				<path d="M838,374.5c-1.8-2.7-2.4-5.8-1.7-9c0.8-3.8,4.2-8.4,8.2-4.5c1.4,1.4,3.5-0.8,2.1-2.1
					c-3.9-3.9-8.7-2.8-11.5,1.8c-2.9,4.7-2.6,10.8,0.4,15.3C836.5,377.6,839.1,376.1,838,374.5L838,374.5z" style="fill:#161616;"/>
			</g>
		</g>
		<g>
			<g>
				<path d="M834.5,367.6c-0.2-1.4-0.7-2.5-1.4-3.8c-1.3-2.4-1.6-4.2-0.9-6.9c1.2-4.6,5.1-8,9.8-5.2
					c1.7,1,3.2-1.6,1.5-2.6c-4.3-2.5-9.8-1.5-12.5,2.8c-1.4,2.2-2.3,5.1-2.3,7.7c-0.1,3.3,2.4,5.6,2.9,8.8
					C831.9,370.3,834.8,369.5,834.5,367.6L834.5,367.6z" style="fill:#161616;"/>
			</g>
		</g>
		<g>
			<g>
				<path d="M831.6,353c-1.6-2.3-1.7-5.5,0.3-7.6c2-2.1,5.2-2.2,7.6-0.7c1.6,1,3.1-1.6,1.5-2.6
					c-3.5-2.2-8.3-1.8-11.2,1.2c-2.9,3-3.1,7.9-0.8,11.3C830.1,356.1,832.7,354.6,831.6,353L831.6,353z" style="fill:#161616;"/>
			</g>
		</g>
		<g>
			<g>
				<path d="M840.9,351.3c2.2,1.1,3,4.2,1.3,6.1c-1.3,1.4,0.8,3.6,2.1,2.1c2.9-3.2,2.1-8.8-1.9-10.8
					C840.7,347.9,839.1,350.4,840.9,351.3L840.9,351.3z" style="fill:#161616;"/>
			</g>
		</g>
		<g>
			<g>
				<path d="M838.3,344.8c1.9,0.9,3,2.9,2.6,5.1c-0.4,1.9,2.5,2.7,2.9,0.8c0.7-3.4-0.9-6.9-4-8.4
					C838.1,341.3,836.6,343.9,838.3,344.8L838.3,344.8z" style="fill:#161616;"/>
			</g>
		</g>
		<g>
			<g>
				<path d="M844.3,362.3c0.7,1.1,0.9,2.5,0.3,3.8c-0.3,0.7-0.2,1.6,0.5,2.1c0.6,0.4,1.7,0.2,2.1-0.5
					c1-2.2,0.9-4.7-0.3-6.8C845.9,359.1,843.3,360.6,844.3,362.3L844.3,362.3z" style="fill:#161616;"/>
			</g>
		</g>
		<g>
			<g>
				<path d="M829.5,322.7c1.2,6.8,2.7,13.5,4.6,20.2c0.5,1.9,3.4,1.1,2.9-0.8c-1.9-6.6-3.4-13.4-4.6-20.2
					C832.1,320,829.2,320.8,829.5,322.7L829.5,322.7z" style="fill:#161616;"/>
			</g>
		</g>
		<g>
			<g>
				<path d="M846.3,321.1c2.4,8,4.8,15.9,7.1,23.9c0.6,1.8,3.4,1.1,2.9-0.8c-2.4-8-4.8-15.9-7.1-23.9
					C848.6,318.4,845.7,319.2,846.3,321.1L846.3,321.1z" style="fill:#161616;"/>
			</g>
		</g>
		<g>
			<g>
				<path d="M829.8,319.8c-12.7-1.2-24.3-17.4-26.1-29.2c-2.2-14.3,11.1-26.1,24.3-28.6c28.3-5.2,43.3,44.4,19.1,57.4
					c-1.7,0.9-0.2,3.5,1.5,2.6c21-11.3,15.3-47.1-2.3-58.8c-21.2-14.1-53,8.6-44.2,33.2c4.1,11.4,14.8,25.1,27.7,26.3
					C831.7,323,831.7,320,829.8,319.8L829.8,319.8z" style="fill:#161616;"/>
			</g>
		</g>
		<g>
			<g>
				<path d="M829.7,309.3c-9.7-2.2-17.3-10.7-17.2-20.9c0.1-10.8,9-20.4,19.9-20.8c13.1-0.4,19.5,12.3,19.3,23.9
					c-0.1,6.7-1.1,13.1-8,15.8c-5.3,2-11.1,3.8-16.7,1.6c-1.8-0.7-2.6,2.2-0.8,2.9c6.4,2.5,13.8,0.4,19.9-2.3
					c5.8-2.6,7.5-7.2,8.3-13.3c1.6-13.3-3.6-29.6-18.9-31.4c-12.6-1.5-23.8,8.3-25.6,20.6c-1.8,12.5,7.1,24,19.2,26.8
					C830.8,312.6,831.6,309.7,829.7,309.3L829.7,309.3z" style="fill:#161616;"/>
			</g>
		</g>
		<g>
			<g>
				<path d="M832.9,266.5c-4.1,12.9-8.2,25.9-12.2,38.8c-0.6,1.8,2.3,2.6,2.9,0.8c4.1-12.9,8.2-25.9,12.2-38.8
					C836.4,265.5,833.5,264.7,832.9,266.5L832.9,266.5z" style="fill:#161616;"/>
			</g>
		</g>
		<g>
			<g>
				<path d="M838.8,280.9c-3.1,9.3-6.5,18.5-10,27.6c-0.7,1.8,2.2,2.6,2.9,0.8c3.5-9.1,6.9-18.4,10-27.6
					C842.3,279.8,839.4,279,838.8,280.9L838.8,280.9z" style="fill:#161616;"/>
			</g>
		</g>
		<path d="M1036.8,325.7c-4.4,11.1-12.1,27.6-25.3,45.2c-14.2,19.1-30.3,40.7-59.3,50.1c-7.2,2.3-28.7,9-54.5,1
			c-22.5-7-36-21.4-41.3-27.7c2.5,6.7,7.2,17,16,27.2c4.6,5.3,21.5,24.4,50.6,29.2c3.6,0.6,22.4,3.5,44.3-4.9
			c24.1-9.2,37.1-26.3,46.2-38.4c6.4-8.5,17.8-24.1,22.4-47.7C1038.6,345.7,1037.9,333.7,1036.8,325.7z" style="opacity:0.12;fill:#6D6C6C;"/>
		<path d="M877.3,423c7.5,4.8,21.1,12.1,39.4,14.1c22.7,2.5,39.9-4.6,52.5-9.7c25-10.3,42.5-25.8,53.5-37.9
			c-3.8,9-11.8,24.4-27.7,37.9c-7.5,6.4-33.4,28.4-68.6,23.3C899.6,446.8,882.8,429.3,877.3,423z" style="opacity:0.21;fill:#6D6C6C;"/>
	</g>
	<g id="torso">
		<path d="M1019.1,315.9c-16.6,12.3-22.7,28.7-29.6,46.9c-12.8,33.8-10.7,60.7-9.3,103.3c0.9,27.1,1.7,66.4,0.9,115.4
			c17.2,4.3,38.8,8,63.8,8.9c19.4,0.6,36.7-0.6,51.3-2.6c8.2-37.7,16.8-68.1,23.2-89.2c21.4-70.6,43.1-122.3,23.3-163.7
			c-1-2-2-3.7-3.1-5.2C1116.8,297.5,1052.9,290.8,1019.1,315.9z" style="fill:#474747;"/>
		<path d="M1091.3,302.9c-1.3,7.3-3.5,18.8-6.8,32.6c-18.7,78-37.5,82.3-40.8,125.5c-3.4,43.5,14.2,59.2-0.5,91.9
			c-7.7,17.1-19.5,28.5-28.2,35.5c13.9,1,28.8,1.6,44.7,1.5c12.5-0.1,24.3-0.6,35.5-1.5c7.1-30.9,13.9-55.6,19-72.9
			c2.5-8.5,5.5-18.6,11.2-37.4c9.3-30.8,11.7-38.4,15.6-53c5.7-21.7,8.6-32.8,9.2-43.8c1-16.5,2.1-35.3-9.7-51.1
			c-7.5-10.1-17.8-15.5-23.3-18.5C1107,306.2,1097.6,303.9,1091.3,302.9z" style="opacity:0.15;fill:#6D6C6C;"/>
		<path d="M1133.1,441.5c-2.1-0.8-12.8,27.6-31.6,66.1c-17.5,35.8-34.1,64-45.7,82.7c13.1-1,26.3-1.9,39.4-2.9
			c3.4-13.3,8.6-33.2,15.1-57.4C1126.3,470.4,1135.2,442.2,1133.1,441.5z" style="opacity:0.17;fill:#6D6C6C;"/>
	</g>
	<g id="hand_front">
		<path d="M1125.8,325.2c-3.3,1.2-8,3.2-13.4,6.3c-19,10.9-29.1,25.9-35.3,34.9c0,0-20.9,30.4-53.1,71.2
			c-10,12.7-20,24.5-32.3,37.3c-25.5,26.6-36.8,32.1-41.7,34.2c-12.2,5.4-22.9,10.1-37,9c-9.3-0.7-15.1-3.6-21.5,0.3
			c-6.8,4.1-11.3,13.9-10.4,19.3c0.1,0.6,0.5,2.5,0.7,5.2c0.1,0.7,0.2,3.1,0,6.6c-0.3,5.4-0.9,4.9-0.7,6.9c0.6,4.3,3.6,6.5,2.7,7.9
			c-0.6,1-2.2,0.1-3.4,1.4c-1.4,1.4-0.8,4.1-0.7,4.5c0.7,3.1,3.3,4.9,4.4,5.5c4.3,2.8,7.2,1.3,18.1,1.7c7.7,0.3,10,1.2,13.8-0.7
			c1-0.5,2.7-1.4,5.7-4.8c8.6-9.6,7.6-16,15.1-22.1c2.7-2.2,5.4-3.4,7.1-4.1c5.5-2.4,9.1-2.3,14.4-3.5c3.6-0.7,7.2-2.2,14.4-5.2
			c11.7-4.8,20.7-9.5,24.2-11.4c21.1-11.4,40.2-25.8,44.3-29c21.9-16.7,35.9-30.8,54.1-49.1c13.1-13.1,26.9-27.9,40.3-48
			c4.1-6.2,11.4-17.7,13.8-33.9c1.1-7.3,2.2-15.5-2-23.8C1141.6,329.7,1128.9,326,1125.8,325.2z" style="fill:#FFFFFF;"/>
		<g>
			<g>
				<path d="M1122.8,324.3c-18.9,5.9-33.3,23-45.1,38c-13.4,17.1-25.5,35.1-38.5,52.4c-13.9,18.5-28.3,36.6-44,53.6
					c-14.9,16-31.2,31.8-51.3,41c-11.7,5.3-24.6,8.3-37.4,7.2c-7.3-0.6-16.6-2.4-21.1,5c-1,1.6,1.6,3.2,2.6,1.5
					c2.7-4.5,8.3-4.4,12.9-4c4.8,0.3,9.5,0.9,14.3,0.7c9.5-0.5,18.9-2.9,27.7-6.6c18.7-7.9,34.3-21.5,48.3-36
					c30.2-31.2,55-66.8,80.6-101.7c7.2-9.8,14.6-19.4,23.1-28.1c8.2-8.4,17.5-16.5,29-20.1C1125.4,326.6,1124.6,323.7,1122.8,324.3
					L1122.8,324.3z" style="fill:#161616;"/>
			</g>
		</g>
		<g>
			<g>
				<path d="M1122.5,326.2c16.7-2.3,26,15.4,25.9,29.7c-0.1,14.2-6.1,28.2-13.1,40.3c-13,22.7-31.9,42.1-50.2,60.6
					c-36.2,36.3-78.4,69.2-128.3,83.9c-6.1,1.8-13.5,2.4-18.9,6c-5.1,3.4-7.7,10-11.2,14.9c-2.6,3.6-5.4,7.1-8.4,10.4
					c-3.9,4.2-7.5,4.6-12.8,4.2c-4-0.3-8-0.6-12.1-0.9c-4.1-0.3-9.9,0-11.9-4.4c-0.8-1.8-3.4-0.2-2.6,1.5c2.1,4.7,7.1,5.3,11.7,5.7
					c3.7,0.3,7.4,0.6,11.1,0.8c3.6,0.3,7.7,1.1,11.3,0.4c6-1.2,10.5-8.7,14-13.1c4.2-5.4,7.7-14.3,13.8-17.7
					c3.4-1.9,7.7-2.4,11.4-3.4c3.7-1,7.3-2,10.9-3.2c6.5-2.1,13-4.6,19.3-7.3c13.2-5.7,25.8-12.5,37.9-20.3
					c24.2-15.6,46.2-34.5,66.5-54.8c20.6-20.6,42.3-42.7,55.3-69.2c6.8-13.9,12.4-30.7,8-46.1c-3.5-12.4-14.8-22.6-28.2-20.8
					C1119.8,323.6,1120.6,326.5,1122.5,326.2L1122.5,326.2z" style="fill:#161616;"/>
			</g>
		</g>
		<g>
			<g>
				<path d="M882.1,537c0.9-6.1,16.4-5.5,20.5-5.9c5.6-0.5,10.6-1.7,15-5.4c1.5-1.3-0.7-3.4-2.1-2.1
					c-6.4,5.4-15.2,4.3-23,5.3c-4.1,0.6-12.5,2.1-13.2,7.2C878.9,538.1,881.8,538.9,882.1,537L882.1,537z" style="fill:#161616;"/>
			</g>
		</g>
		<g>
			<g>
				<path d="M879.1,537.4c4.9,9.7,15.5,15,26.1,12.7c1.9-0.4,1.1-3.3-0.8-2.9c-9.4,2.1-18.5-2.8-22.8-11.3
					C880.8,534.2,878.2,535.7,879.1,537.4L879.1,537.4z" style="fill:#161616;"/>
			</g>
		</g>
		<g>
			<g>
				<path d="M880.5,540.2c-2,5.2,0.3,11,4.7,14.2c5,3.7,11.5,3.3,17.3,2.3c1.9-0.3,1.1-3.2-0.8-2.9
					c-4.5,0.8-9.6,1.2-13.8-1.2c-4.1-2.3-6.2-7.2-4.6-11.6C884.1,539.2,881.2,538.4,880.5,540.2L880.5,540.2z" style="fill:#161616;"/>
			</g>
		</g>
		<g>
			<g>
				<path d="M880.7,548.5c-2.8,4.6-1.6,10.7,2.3,14.4c4.6,4.4,11.6,3.9,16.9,1.3c1.7-0.8,0.2-3.4-1.5-2.6
					c-4.1,1.9-9.4,2.5-13.1-0.7c-3.1-2.7-4.1-7.3-2-10.9C884.3,548.3,881.7,546.8,880.7,548.5L880.7,548.5z" style="fill:#161616;"/>
			</g>
		</g>
		<g>
			<g>
				<path d="M882,571.3c-2-3.2,0.7-7.2,4.5-5.8c1.8,0.7,2.6-2.2,0.8-2.9c-6.2-2.3-11.1,4.9-7.8,10.2
					C880.4,574.4,883,572.9,882,571.3L882,571.3z" style="fill:#161616;"/>
			</g>
		</g>
		<g>
			<g>
				<path d="M885.3,523.5c5.6-2,11.5,0.7,13.9,6.1c0.8,1.8,3.4,0.2,2.6-1.5c-2.9-6.5-10.5-9.9-17.3-7.4
					C882.7,521.3,883.5,524.2,885.3,523.5L885.3,523.5z" style="fill:#161616;"/>
			</g>
		</g>
		<g>
			<g>
				<path d="M884.2,521.7c-4,2.9-3.9,9.8,0.6,12.2c1.7,0.9,3.2-1.7,1.5-2.6c-2.4-1.3-3-5.4-0.6-7
					C887.3,523.1,885.8,520.5,884.2,521.7L884.2,521.7z" style="fill:#161616;"/>
			</g>
		</g>
		<g>
			<g>
				<path d="M885.1,530c0.2-2.2,0.9-4,2.2-5.8c-0.9,0-1.7,0-2.6,0c1,1.7,1,3.3,0,4.9c0.9,0.1,1.8,0.2,2.7,0.4
					c-0.2-0.6-0.3-5.2,0.9-4.4c0.9,0.6-1.1,3.7-1.5,4.4c0.9,0,1.7,0,2.6,0c-0.4-0.7-0.7-1.4-0.7-2.2c0.4-2.2,1-2.4,1.7-0.5
					c0.5,0.4,1,0.7,1.4,1.1c-0.3-1.1,0-1.7,0.9-1.5c0.9-0.4,1.1-0.1,0.6,0.8c0.7,0.2,1.4,0.4,2.1,0.5c0.3,0.3,0.5,0.6,0.8,0.9
					c-0.3,1.9,2.6,2.7,2.9,0.8c0.4-2.5-1.9-5.9-4.5-3.6c-2.2,2,0,5.7,2.8,4.2c2.7-1.5,1.6-5.6-1.2-6.3c-3.2-0.7-4.8,3.1-3.4,5.5
					c0.4,0.7,1.4,0.9,2.1,0.5c2.5-1.5,2.3-5.7-0.5-6.8c-3.6-1.5-5.9,2.8-5.4,5.8c0.1,0.7,0.8,1.1,1.4,1.1c4.2,0.2,5.2-6,1.3-7.3
					c-5.4-1.8-6.9,5-4.9,8.6c0.6,1.1,2,0.9,2.6,0c1.4-2,4.3-9.2-0.3-9.6c-4.3-0.3-5.5,5.9-4.6,8.9c0.4,1.2,2.1,1.5,2.7,0.4
					c1.5-2.5,1.5-5.4,0-8c-0.6-1-2-0.9-2.6,0c-1.6,2.2-2.3,4.6-2.6,7.3C881.9,532,884.9,531.9,885.1,530L885.1,530z" style="fill:#161616;"/>
			</g>
		</g>
		<g>
			<g>
				<path d="M882.6,533.3c5.1,0.9,17.5,1.9,18.8-5.5c0.3-1.9-2.6-2.7-2.9-0.8c-0.9,5.1-11.6,4-15.1,3.4
					C881.5,530.1,880.7,533,882.6,533.3L882.6,533.3z" style="fill:#161616;"/>
			</g>
		</g>
		<g>
			<g>
				<path d="M894.7,531.8c3.8,15.3,3.4,31-1.3,46c-0.6,1.8,2.3,2.6,2.9,0.8c4.8-15.5,5.3-31.8,1.3-47.6
					C897.1,529.1,894.2,529.9,894.7,531.8L894.7,531.8z" style="fill:#161616;"/>
			</g>
		</g>
		<g>
			<g>
				<path d="M894.1,532c0.7,7.6,1.1,15.1,1.3,22.7c0.2,7.3,0.7,14.8-1.7,21.8c-0.6,1.8,2.3,2.6,2.9,0.8
					c2.3-6.7,2-13.7,1.9-20.7c-0.2-8.2-0.6-16.4-1.3-24.6C896.9,530.1,893.9,530.1,894.1,532L894.1,532z" style="fill:#161616;"/>
			</g>
		</g>
		<g>
			<g>
				<path d="M898,531.9c2.2,1.6,1.8,9.5,1.9,12c0.1,3.4,0.1,6.7-0.1,10.1c-0.4,7.2-1.5,14.4-3.3,21.4
					c-0.5,1.9,2.4,2.7,2.9,0.8c2.2-8.8,3.4-17.7,3.5-26.8c0-4.6-0.2-9.2-0.7-13.8c-0.3-2.7-0.5-4.7-2.7-6.3
					C897.9,528.2,896.4,530.8,898,531.9L898,531.9z" style="fill:#161616;"/>
			</g>
		</g>
		<g>
			<g>
				<path d="M897.3,531.1c1.3,8.1,1.7,16.2,1.1,24.3c-0.1,1.9,2.9,1.9,3,0c0.6-8.4,0.2-16.8-1.2-25.1
					C899.9,528.4,897,529.2,897.3,531.1L897.3,531.1z" style="fill:#161616;"/>
			</g>
		</g>
		<g>
			<g>
				<path d="M890,531.7c3.3,11.1,4.6,22.6,3.7,34.2c-0.2,3-3.3,17.1,4.8,13.3c3-1.4,3.3-4.9,3.6-7.7
					c0.6-5.7,0.7-11.4,0.7-17.1c0-9,1.2-19.9-4-27.7c-1.1-1.6-3.7-0.1-2.6,1.5c4.3,6.5,3.5,14.9,3.6,22.4c0,4.1,0,8.2-0.1,12.3
					c-0.1,1.9-0.2,3.8-0.3,5.7c-0.1,1-0.7,9.2-3.6,5.8c0,0,0.6-4.4,0.7-4.9c0.2-1.8,0.4-3.7,0.5-5.5c0.2-3.7,0.2-7.4,0-11
					c-0.4-7.5-1.8-14.9-3.9-22.1C892.4,529,889.5,529.8,890,531.7L890,531.7z" style="fill:#161616;"/>
			</g>
		</g>
		<g>
			<g>
				<path d="M893.7,531.3c0.6,4.8,1.1,9.6,1.7,14.3c0.2,1.9,3.2,1.9,3,0c-0.6-4.8-1.1-9.6-1.7-14.3
					C896.4,529.4,893.4,529.4,893.7,531.3L893.7,531.3z" style="fill:#161616;"/>
			</g>
		</g>
		<g>
			<g>
				<path d="M890.7,528.4c2.1,5.4,3.8,11,4.9,16.7c0.4,1.9,3.3,1.1,2.9-0.8c-1.1-5.7-2.7-11.3-4.9-16.7
					C892.9,525.8,890,526.6,890.7,528.4L890.7,528.4z" style="fill:#161616;"/>
			</g>
		</g>
		<path d="M1143.8,335.9c-3.8,0-4.8,20.2-10.2,37.4c-4.7,14.9-12.7,27.1-46.7,60.3c-47.2,46-71.6,69.3-111.8,89.5
			c-17,8.5-31.9,14-42.3,17.5c-3.3,2.9-14.2,11.7-30.1,11.7c-7.8,0-14.1-2.1-18-3.9c-0.7,0.4-2.9,1.7-3.9,4.4
			c-1.1,2.9-0.3,6.3,1.9,8.8c-0.8,0.7-3,3.1-2.9,6.3c0.1,3.7,3,6,3.9,6.8c3.4,2.8,9.2,2.9,20.4,2.9c2.9,0,7.1,0,12.2,0
			c1.9-2,4.7-5.1,7.8-9.2c7.4-10,8.2-15,13.6-19.5c6.2-5.1,13.4-5.3,16.5-5.8c26.7-4.6,59.8-26.6,78.3-38.9
			c29.5-19.6,46.3-38.1,79.8-74.9c0,0,17.8-19.6,31.6-49.6c2.1-4.5,6.6-15,5.3-28.2C1148.5,345.2,1146.4,336,1143.8,335.9z" style="opacity:0.15;fill:#6D6C6C;"/>
	</g>
	<g id="head">
		<path d="M1101.7,235c0.8,24.2-0.1,37.9,4,61c1.9,10.8,4.2,19.5,5.9,25.3c-10.3,3.3-27.6,7.3-48.8,5
			c-13.9-1.5-25.2-5.2-33.3-8.6c3.7-7,8.2-17.3,10.7-30.3c2.2-11.3,2.2-21.1,1.7-28.5c-10.4-4.2-20.8-8.5-31.2-12.7
			c-0.9-5.3-1.7-10.6-2.6-15.8c-2.9-0.9-5.9-1.8-8.8-2.7c3.9-5.9,10-15.2,17.2-26.8c13.5-21.9,14.3-25.3,19.7-29.6
			c14.6-11.8,41.4-14.8,55.3-2.7C1099.7,175.8,1100.5,195.6,1101.7,235z" style="fill:#FFFFFF;stroke:#161616;stroke-width:2;stroke-miterlimit:10;"/>
		<g>
			<g>
				<path d="M999.1,229.4c5.5,1.6,11.1,2.6,16.8,3.2c1.9,0.2,1.9-2.8,0-3c-5.4-0.6-10.8-1.6-16-3.1
					C998,226,997.2,228.9,999.1,229.4L999.1,229.4z" style="fill:#161616;"/>
			</g>
		</g>
		<g>
			<g>
				<path d="M1008.1,186.1c3.7-0.9,7.7,1.1,9.1,4.7c0.7,1.8,3.6,1,2.9-0.8c-2-5.2-7.3-8.1-12.7-6.8
					C1005.4,183.7,1006.2,186.6,1008.1,186.1L1008.1,186.1z" style="fill:#161616;"/>
			</g>
		</g>
		<g>
			<g>
				<path d="M1030.6,195.6c4.5-0.2,8.6,2.4,10.1,6.6c0.6,1.8,3.5,1,2.9-0.8c-1.9-5.5-7.1-9.2-12.9-8.9
					C1028.7,192.7,1028.7,195.7,1030.6,195.6L1030.6,195.6z" style="fill:#161616;"/>
			</g>
		</g>
		<g>
			<g>
				<path d="M1031.6,208.3c-0.7-1.5-0.4-2.8-0.2-4.4c0.3-0.4,0.3-0.6,0-0.4c-0.3,0.1-0.3,0.3,0,0.6
					c0.1,0.7,0.3,1.4,0.4,2.1c0,0.5-0.2,1.5-0.1,1.9c0.2,0.2,0.4,0.4,0.6,0.6c0-0.3,0.1-0.6,0.1-0.9c0.2-1.5,0.4-3,0.6-4.6
					c0.2-1.5-2.2-2-2.8-0.8c-0.5,1-0.7,1.9-0.7,3c0.1,1.9,3.1,1.9,3,0c0-0.6,0-0.9,0.3-1.5c-0.9-0.3-1.9-0.5-2.8-0.8
					c-0.2,1.8-0.7,3.7-0.7,5.5c0,1.3,0.7,2.4,2,2.6c3.3,0.5,3.6-3.7,3.4-6c-0.3-2.1-1.9-6.6-4.8-4.2c-2.5,2-1.9,6.3-0.8,8.8
					C1029.8,211.5,1032.4,210,1031.6,208.3L1031.6,208.3z" style="fill:#161616;"/>
			</g>
		</g>
		<path d="M1030.6,176.2c2-4.7,6-12.1,13.5-19c2.6-2.4,8.2-7.5,15.7-10c14.2-4.7,32.7,0.8,43.7,14.1
			c10.8,13,12.9,31.8,5.6,47.9C1083,198.2,1056.8,187.2,1030.6,176.2z" style="fill:#3A3A3A;"/>
		<g>
			<g>
				<path d="M986.1,164.1c40.5,16.3,81,32.5,121.4,48.8c5.4,2.2,7.7-6.5,2.4-8.7c-40.5-16.3-81-32.5-121.4-48.8
					C983.2,153.3,980.8,162,986.1,164.1L986.1,164.1z" style="fill:#161616;"/>
			</g>
		</g>
		<path d="M1082.3,201c-8.1,0.8-13.7,4.7-20.3,9.4c-13.9,10-12,15.5-21.5,21.5c-15.1,9.6-25.1-1-38.8,8.6
			c-11.7,8.2-14.2,22.6-14.7,26c-0.5,3.2-2.2,16.3,5.9,27.7c7,9.9,18.7,14.8,19.9,13.3c0.4-0.5-0.2-2.3-5.7-8.5
			c1.6,1.9,4.2,4.4,8,6.1c4.4,2,8.9,2.4,9.1,1.7c0.2-0.5-2.3-1.1-3.7-3.6c-0.8-1.5-0.9-3-0.9-4.2c3,3.3,7.1,6.6,11.8,6.5
			c12.9-0.5,22-26.4,25-35c9.7-27.8,5.6-45.5,18.2-52.9c1.1-0.6,6.1-3.6,10.3-1.6c5.4,2.5,7.3,12.2,4,17.5c-2.9,4.5-8.8,4.4-8.7,5.4
			c0.2,1.3,10.2,2,19.7-2.2c3.5-1.5,6.3-2.8,8.5-5.8c3.7-5.3,2.9-12.8,0.7-17.6C1104.3,203,1091.1,200.1,1082.3,201z" style="fill:#161616;stroke:#161616;stroke-width:2;stroke-miterlimit:10;"/>
		<path d="M1083.7,240.5c-1.8-0.3-4.4-0.9-4.4-1.5c0-0.3,0.7-0.6,0.7-0.6c0-0.1-2.8,2.1-5.6,1.8
			c-1.3-0.2-2.3-0.9-2.9-1.5c2.2,10.9,4.1,24.1,4.2,39.3c0.2,19.3-2.3,35.8-5.1,48.5c6,0.7,14.6,0.9,24.5-1.2
			c6.2-1.3,11.5-3.3,15.6-5.2c-6-18.4-7.8-32.4-8.3-41.7c-0.3-4.4-0.6-14.7-0.8-19.7c-0.3-9.2-0.6-16.8-0.7-21.9
			c-0.9,0.4-2.3,1.1-4.1,1.8C1094.4,239.6,1089.4,241.4,1083.7,240.5z" style="opacity:0.22;fill:#6D6C6C;"/>
		<path d="M1076.3,146.3c10.3,5,16.2,15.8,14.8,26.4c-1.7,12.6-12.9,18.5-14,19.1c11.2,4.5,22.4,8.9,33.6,13.4
			c0.9-2.6,1.9-6.2,2.4-10.7c1.4-14.2-4.4-24.8-5.7-26.9c-2-3.4-9.1-14.9-23.1-19.5C1081.2,146.9,1078.4,146.5,1076.3,146.3z" style="fill:#282828;"/>
	</g>
</g>
</svg>