<?xml version="1.0" encoding="UTF-8"?>
<svg xmlns="http://www.w3.org/2000/svg" xmlns:xlink="http://www.w3.org/1999/xlink" width="500pt" height="500pt" viewBox="0 0 500 500" version="1.1">
<g id="surface1">
<rect x="0" y="0" width="500" height="500" style="fill:rgb(58.399963%,79.199219%,85.499573%);fill-opacity:1;stroke:none;"/>
<path style=" stroke:none;fill-rule:nonzero;fill:rgb(5.099487%,25.898743%,41.999817%);fill-opacity:1;" d="M 344.144531 392.847656 L 163.050781 392.847656 L 163.050781 287.511719 L 344.144531 287.511719 L 344.144531 392.847656 "/>
<path style=" stroke:none;fill-rule:nonzero;fill:rgb(38.398743%,68.998718%,86.299133%);fill-opacity:1;" d="M 171.28125 295.171875 L 171.28125 384.230469 L 172.867188 384.230469 L 335.777344 295.171875 L 171.28125 295.171875 "/>
<path style=" stroke:none;fill-rule:nonzero;fill:rgb(19.198608%,63.899231%,83.099365%);fill-opacity:1;" d="M 172.867188 384.230469 L 335.914063 384.230469 L 335.914063 295.171875 L 335.777344 295.171875 L 172.867188 384.230469 "/>
<path style=" stroke:none;fill-rule:nonzero;fill:rgb(100%,100%,100%);fill-opacity:1;" d="M 360.585938 401.246094 L 360.585938 392.847656 L 146.609375 392.847656 L 146.609375 404.015625 L 360.585938 404.015625 L 360.585938 401.246094 "/>
<path style=" stroke:none;fill-rule:nonzero;fill:rgb(49.798584%,65.899658%,76.899719%);fill-opacity:1;" d="M 146.609375 404.015625 L 146.609375 404.222656 C 146.609375 406.570313 150.691406 408.472656 155.726563 408.472656 L 351.46875 408.472656 C 356.503906 408.472656 360.585938 406.570313 360.585938 404.222656 L 360.585938 404.015625 L 146.609375 404.015625 "/>
<path style=" stroke:none;fill-rule:nonzero;fill:rgb(49.798584%,65.899658%,76.899719%);fill-opacity:1;" d="M 266.292969 398.820313 L 240.902344 398.820313 L 240.902344 392.847656 L 266.292969 392.847656 L 266.292969 398.820313 "/>
<path style=" stroke:none;fill-rule:nonzero;fill:rgb(26.699829%,47.099304%,61.999512%);fill-opacity:1;" d="M 324.171875 263.105469 C 318.796875 263.105469 314.4375 258.742188 314.4375 253.359375 C 314.4375 247.980469 318.796875 243.617188 324.171875 243.617188 C 329.546875 243.617188 333.90625 247.980469 333.90625 253.359375 C 333.90625 258.742188 329.546875 263.105469 324.171875 263.105469 Z M 340.824219 255.253906 L 340.824219 251.46875 L 337.253906 251.46875 C 336.933594 249.226563 336.054688 247.171875 334.761719 245.4375 L 337.28125 242.914063 L 334.605469 240.234375 L 332.085938 242.761719 C 330.355469 241.464844 328.300781 240.585938 326.0625 240.265625 L 326.0625 236.691406 L 322.277344 236.691406 L 322.277344 240.265625 C 320.039063 240.585938 317.988281 241.464844 316.257813 242.761719 L 313.734375 240.234375 L 311.058594 242.914063 L 313.578125 245.441406 C 312.285156 247.171875 311.410156 249.226563 311.085938 251.46875 L 307.519531 251.46875 L 307.519531 255.253906 L 311.085938 255.253906 C 311.410156 257.496094 312.285156 259.550781 313.578125 261.28125 L 311.058594 263.808594 L 313.734375 266.484375 L 316.257813 263.960938 C 317.988281 265.253906 320.039063 266.136719 322.277344 266.457031 L 322.277344 270.027344 L 326.0625 270.027344 L 326.0625 266.457031 C 328.300781 266.136719 330.355469 265.257813 332.085938 263.960938 L 334.605469 266.484375 L 337.28125 263.808594 L 334.761719 261.28125 C 336.054688 259.550781 336.933594 257.496094 337.253906 255.253906 L 340.824219 255.253906 "/>
<path style=" stroke:none;fill-rule:nonzero;fill:rgb(26.699829%,47.099304%,61.999512%);fill-opacity:1;" d="M 324.171875 256.234375 C 322.585938 256.234375 321.300781 254.949219 321.300781 253.359375 C 321.300781 251.773438 322.585938 250.488281 324.171875 250.488281 C 325.757813 250.488281 327.042969 251.773438 327.042969 253.359375 C 327.042969 254.949219 325.757813 256.234375 324.171875 256.234375 "/>
<path style=" stroke:none;fill-rule:nonzero;fill:rgb(100%,100%,100%);fill-opacity:1;" d="M 276.441406 117.9375 C 271.066406 117.9375 266.710938 113.574219 266.710938 108.191406 C 266.710938 102.8125 271.066406 98.449219 276.441406 98.449219 C 281.820313 98.449219 286.179688 102.8125 286.179688 108.191406 C 286.179688 113.574219 281.820313 117.9375 276.441406 117.9375 Z M 293.097656 110.089844 L 293.097656 106.300781 L 289.527344 106.300781 C 289.207031 104.0625 288.328125 102.003906 287.035156 100.273438 L 289.558594 97.746094 L 286.882813 95.066406 L 284.355469 97.597656 C 282.628906 96.300781 280.574219 95.421875 278.335938 95.097656 L 278.335938 91.527344 L 274.550781 91.527344 L 274.550781 95.097656 C 272.3125 95.421875 270.261719 96.300781 268.53125 97.597656 L 266.007813 95.066406 L 263.328125 97.746094 L 265.851563 100.273438 C 264.558594 102.003906 263.683594 104.0625 263.359375 106.300781 L 259.792969 106.300781 L 259.792969 110.089844 L 263.359375 110.089844 C 263.683594 112.328125 264.558594 114.382813 265.851563 116.113281 L 263.328125 118.640625 L 266.007813 121.320313 L 268.53125 118.792969 C 270.261719 120.089844 272.3125 120.96875 274.550781 121.289063 L 274.550781 124.863281 L 278.335938 124.863281 L 278.335938 121.289063 C 280.574219 120.96875 282.628906 120.089844 284.355469 118.792969 L 286.882813 121.320313 L 289.558594 118.640625 L 287.035156 116.113281 C 288.328125 114.382813 289.207031 112.328125 289.527344 110.089844 L 293.097656 110.089844 "/>
<path style=" stroke:none;fill-rule:nonzero;fill:rgb(100%,100%,100%);fill-opacity:1;" d="M 276.441406 111.066406 C 274.855469 111.066406 273.570313 109.78125 273.570313 108.195313 C 273.570313 106.609375 274.855469 105.320313 276.441406 105.320313 C 278.027344 105.320313 279.316406 106.609375 279.316406 108.195313 C 279.316406 109.78125 278.027344 111.066406 276.441406 111.066406 "/>
<path style=" stroke:none;fill-rule:nonzero;fill:rgb(26.699829%,47.099304%,61.999512%);fill-opacity:1;" d="M 65.503906 369.519531 C 64.707031 369.527344 64.054688 368.886719 64.046875 368.089844 C 64.039063 367.292969 64.679688 366.640625 65.476563 366.632813 C 66.273438 366.625 66.925781 367.265625 66.933594 368.0625 C 66.941406 368.859375 66.300781 369.511719 65.503906 369.519531 Z M 59.53125 369.574219 C 58.738281 369.585938 58.085938 368.945313 58.078125 368.144531 C 58.070313 367.347656 58.710938 366.695313 59.507813 366.6875 C 60.300781 366.679688 60.957031 367.320313 60.964844 368.117188 C 60.972656 368.914063 60.332031 369.570313 59.53125 369.574219 Z M 53.5625 369.632813 C 52.769531 369.640625 52.113281 369 52.105469 368.199219 C 52.097656 367.402344 52.738281 366.75 53.535156 366.742188 C 54.335938 366.734375 54.988281 367.378906 54.992188 368.175781 C 55 368.972656 54.359375 369.625 53.5625 369.632813 Z M 65.886719 358.5625 L 53.308594 358.679688 C 50.011719 358.710938 47.367188 361.40625 47.398438 364.710938 L 47.464844 371.777344 C 47.496094 375.078125 50.195313 377.730469 53.492188 377.699219 L 55.230469 377.683594 L 59.824219 382.195313 L 64.328125 377.597656 L 66.066406 377.582031 C 69.363281 377.554688 72.011719 374.851563 71.980469 371.550781 L 71.910156 364.480469 C 71.882813 361.183594 69.183594 358.53125 65.886719 358.5625 "/>
<path style=" stroke:none;fill-rule:nonzero;fill:rgb(100%,100%,100%);fill-opacity:1;" d="M 334.351563 184.050781 C 333.777344 184.054688 333.3125 183.597656 333.304688 183.023438 C 333.300781 182.453125 333.757813 181.984375 334.328125 181.980469 C 334.898438 181.976563 335.367188 182.433594 335.371094 183.003906 C 335.378906 183.578125 334.921875 184.042969 334.351563 184.050781 Z M 330.066406 184.089844 C 329.496094 184.097656 329.027344 183.636719 329.023438 183.0625 C 329.019531 182.492188 329.480469 182.023438 330.050781 182.019531 C 330.621094 182.015625 331.089844 182.472656 331.09375 183.042969 C 331.101563 183.617188 330.640625 184.085938 330.066406 184.089844 Z M 325.789063 184.128906 C 325.21875 184.136719 324.75 183.675781 324.742188 183.101563 C 324.738281 182.53125 325.199219 182.066406 325.769531 182.058594 C 326.339844 182.054688 326.808594 182.515625 326.8125 183.085938 C 326.820313 183.65625 326.359375 184.125 325.789063 184.128906 Z M 334.621094 176.195313 L 325.605469 176.277344 C 323.242188 176.300781 321.347656 178.234375 321.367188 180.601563 L 321.414063 185.671875 C 321.4375 188.035156 323.375 189.9375 325.738281 189.914063 L 326.980469 189.902344 L 330.277344 193.136719 L 333.507813 189.84375 L 334.753906 189.832031 C 337.117188 189.808594 339.015625 187.871094 338.992188 185.503906 L 338.941406 180.4375 C 338.921875 178.070313 336.984375 176.171875 334.621094 176.195313 "/>
<path style=" stroke:none;fill-rule:nonzero;fill:rgb(26.699829%,47.099304%,61.999512%);fill-opacity:1;" d="M 350.773438 187.691406 C 350.066406 187.695313 349.488281 187.128906 349.480469 186.421875 C 349.476563 185.710938 350.042969 185.132813 350.75 185.125 C 351.457031 185.117188 352.035156 185.6875 352.042969 186.394531 C 352.050781 187.105469 351.480469 187.683594 350.773438 187.691406 Z M 345.472656 187.738281 C 344.769531 187.746094 344.1875 187.175781 344.183594 186.46875 C 344.175781 185.757813 344.742188 185.183594 345.449219 185.175781 C 346.15625 185.167969 346.734375 185.738281 346.742188 186.445313 C 346.753906 187.152344 346.183594 187.730469 345.472656 187.738281 Z M 340.175781 187.789063 C 339.46875 187.796875 338.890625 187.226563 338.882813 186.515625 C 338.875 185.808594 339.441406 185.230469 340.152344 185.222656 C 340.859375 185.21875 341.4375 185.785156 341.441406 186.496094 C 341.449219 187.203125 340.882813 187.78125 340.175781 187.789063 Z M 351.113281 177.960938 L 339.953125 178.0625 C 337.023438 178.09375 334.675781 180.488281 334.699219 183.417969 L 334.761719 189.695313 C 334.789063 192.621094 337.1875 194.976563 340.109375 194.949219 L 341.652344 194.9375 L 345.730469 198.9375 L 349.730469 194.859375 L 351.273438 194.847656 C 354.199219 194.820313 356.550781 192.421875 356.523438 189.492188 L 356.464844 183.214844 C 356.4375 180.285156 354.039063 177.933594 351.113281 177.960938 "/>
<path style=" stroke:none;fill-rule:nonzero;fill:rgb(26.699829%,47.099304%,61.999512%);fill-opacity:1;" d="M 351.601563 149.648438 L 321.367188 149.648438 L 321.367188 129.183594 L 351.601563 129.183594 L 351.601563 149.648438 "/>
<path style=" stroke:none;fill-rule:nonzero;fill:rgb(29.798889%,72.898865%,82.699585%);fill-opacity:1;" d="M 336.484375 143.570313 L 321.367188 129.183594 L 351.601563 129.183594 Z M 336.484375 143.570313 "/>
<path style=" stroke:none;fill-rule:nonzero;fill:rgb(94.099426%,29.798889%,29.399109%);fill-opacity:1;" d="M 327.339844 129.007813 C 327.339844 132.308594 324.664063 134.980469 321.367188 134.980469 C 318.070313 134.980469 315.398438 132.308594 315.398438 129.007813 C 315.398438 125.707031 318.070313 123.03125 321.367188 123.03125 C 324.664063 123.03125 327.339844 125.707031 327.339844 129.007813 "/>
<path style=" stroke:none;fill-rule:nonzero;fill:rgb(100%,100%,100%);fill-opacity:1;" d="M 323.894531 130.199219 L 322.703125 129.007813 L 323.894531 127.816406 C 324.265625 127.445313 324.265625 126.847656 323.894531 126.476563 C 323.527344 126.109375 322.929688 126.109375 322.558594 126.476563 L 321.367188 127.671875 L 320.175781 126.476563 C 319.808594 126.109375 319.210938 126.109375 318.839844 126.476563 C 318.472656 126.847656 318.472656 127.445313 318.839844 127.816406 L 320.03125 129.007813 L 318.839844 130.199219 C 318.472656 130.566406 318.472656 131.164063 318.839844 131.535156 C 319.210938 131.90625 319.808594 131.90625 320.175781 131.535156 L 321.367188 130.34375 L 322.558594 131.535156 C 322.929688 131.90625 323.527344 131.90625 323.894531 131.535156 C 324.265625 131.164063 324.265625 130.566406 323.894531 130.199219 "/>
<path style=" stroke:none;fill-rule:nonzero;fill:rgb(100%,100%,100%);fill-opacity:1;" d="M 454.703125 126.960938 C 453.871094 122.671875 449.480469 124.652344 449.171875 124.734375 C 449.171875 124.734375 448.636719 120.484375 443.617188 120.484375 C 439.953125 120.484375 436.859375 122.929688 435.871094 126.277344 L 435.4375 126.277344 C 433.621094 126.277344 432.152344 128.011719 432.152344 130.148438 C 432.152344 132.285156 433.621094 134.019531 435.4375 134.019531 L 452.847656 134.019531 C 454.660156 134.019531 456.132813 132.285156 456.132813 130.148438 C 456.132813 128.824219 455.5625 127.65625 454.703125 126.960938 "/>
<path style=" stroke:none;fill-rule:nonzero;fill:rgb(100%,100%,100%);fill-opacity:1;" d="M 67.59375 191.542969 C 68.144531 188.699219 71.058594 190.011719 71.261719 190.066406 C 71.261719 190.066406 71.617188 187.25 74.941406 187.25 C 77.375 187.25 79.421875 188.871094 80.082031 191.089844 L 80.367188 191.089844 C 81.570313 191.089844 82.542969 192.238281 82.542969 193.65625 C 82.542969 195.074219 81.570313 196.226563 80.367188 196.226563 L 68.824219 196.226563 C 67.621094 196.226563 66.648438 195.074219 66.648438 193.65625 C 66.648438 192.777344 67.023438 192.003906 67.59375 191.542969 "/>
<path style=" stroke:none;fill-rule:nonzero;fill:rgb(58.399963%,79.199219%,85.499573%);fill-opacity:1;" d="M 49.675781 240.835938 C 49.097656 237.855469 46.042969 239.230469 45.828125 239.285156 C 45.828125 239.285156 45.460938 236.332031 41.96875 236.332031 C 39.421875 236.332031 37.273438 238.03125 36.585938 240.359375 L 36.28125 240.359375 C 35.023438 240.359375 34 241.5625 34 243.050781 C 34 244.535156 35.023438 245.742188 36.28125 245.742188 L 48.382813 245.742188 C 49.644531 245.742188 50.664063 244.535156 50.664063 243.050781 C 50.664063 242.128906 50.273438 241.316406 49.675781 240.835938 "/>
<path style=" stroke:none;fill-rule:nonzero;fill:rgb(26.699829%,47.099304%,61.999512%);fill-opacity:1;" d="M 63.476563 205.589844 C 62.902344 202.609375 59.847656 203.988281 59.632813 204.042969 C 59.632813 204.042969 59.261719 201.089844 55.773438 201.089844 C 53.226563 201.089844 51.078125 202.789063 50.390625 205.117188 L 50.085938 205.117188 C 48.828125 205.117188 47.804688 206.320313 47.804688 207.808594 C 47.804688 209.292969 48.828125 210.496094 50.085938 210.496094 L 62.1875 210.496094 C 63.449219 210.496094 64.46875 209.292969 64.46875 207.808594 C 64.46875 206.886719 64.078125 206.074219 63.476563 205.589844 "/>
<path style=" stroke:none;fill-rule:nonzero;fill:rgb(100%,100%,100%);fill-opacity:1;" d="M 118.574219 349.125 C 118 346.144531 114.945313 347.519531 114.730469 347.578125 C 114.730469 347.578125 114.359375 344.621094 110.871094 344.621094 C 108.324219 344.621094 106.175781 346.320313 105.484375 348.648438 L 105.183594 348.648438 C 103.921875 348.648438 102.902344 349.855469 102.902344 351.339844 C 102.902344 352.824219 103.921875 354.03125 105.183594 354.03125 L 117.285156 354.03125 C 118.546875 354.03125 119.566406 352.824219 119.566406 351.339844 C 119.566406 350.421875 119.175781 349.609375 118.574219 349.125 "/>
<path style=" stroke:none;fill-rule:nonzero;fill:rgb(100%,100%,100%);fill-opacity:1;" d="M 209.546875 131.085938 L 210.988281 131.085938 L 210.988281 128.367188 L 211.015625 128.367188 C 211.285156 125.035156 214.066406 122.414063 217.464844 122.414063 C 220.199219 122.414063 222.53125 124.109375 223.484375 126.507813 C 223.796875 126.429688 224.125 126.382813 224.464844 126.382813 C 226.679688 126.382813 228.476563 128.179688 228.476563 130.398438 C 228.476563 130.632813 228.453125 130.859375 228.414063 131.085938 L 228.886719 131.085938 C 230.117188 131.085938 231.117188 132.082031 231.117188 133.316406 C 231.117188 134.550781 230.117188 135.550781 228.886719 135.550781 L 209.546875 135.550781 C 208.3125 135.550781 207.3125 134.550781 207.3125 133.316406 C 207.3125 132.082031 208.3125 131.085938 209.546875 131.085938 "/>
<path style=" stroke:none;fill-rule:nonzero;fill:rgb(100%,100%,100%);fill-opacity:1;" d="M 218.605469 130.425781 L 220.921875 130.425781 C 220.921875 130.425781 221.1875 127.558594 224.03125 126.410156 "/>
<path style=" stroke:none;fill-rule:nonzero;fill:rgb(26.699829%,47.099304%,61.999512%);fill-opacity:1;" d="M 77.960938 102.96875 L 76.269531 102.96875 L 76.269531 99.789063 L 76.238281 99.789063 C 75.925781 95.890625 72.671875 92.824219 68.695313 92.824219 C 65.496094 92.824219 62.769531 94.8125 61.65625 97.617188 C 61.289063 97.523438 60.902344 97.46875 60.507813 97.46875 C 57.914063 97.46875 55.8125 99.570313 55.8125 102.164063 C 55.8125 102.4375 55.84375 102.707031 55.886719 102.96875 L 55.335938 102.96875 C 53.894531 102.96875 52.726563 104.136719 52.726563 105.578125 C 52.726563 107.023438 53.894531 108.195313 55.335938 108.195313 L 77.960938 108.195313 C 79.402344 108.195313 80.570313 107.023438 80.570313 105.578125 C 80.570313 104.136719 79.402344 102.96875 77.960938 102.96875 "/>
<path style=" stroke:none;fill-rule:nonzero;fill:rgb(26.699829%,47.099304%,61.999512%);fill-opacity:1;" d="M 67.367188 102.199219 L 64.652344 102.199219 C 64.652344 102.199219 64.34375 98.84375 61.015625 97.5 "/>
<path style=" stroke:none;fill-rule:nonzero;fill:rgb(26.699829%,47.099304%,61.999512%);fill-opacity:1;" d="M 462.390625 133.792969 L 461.03125 133.792969 L 461.03125 131.234375 L 461.007813 131.234375 C 460.753906 128.097656 458.136719 125.632813 454.9375 125.632813 C 452.363281 125.632813 450.171875 127.230469 449.277344 129.488281 C 448.980469 129.410156 448.671875 129.367188 448.351563 129.367188 C 446.265625 129.367188 444.574219 131.058594 444.574219 133.144531 C 444.574219 133.367188 444.597656 133.582031 444.632813 133.792969 L 444.191406 133.792969 C 443.03125 133.792969 442.089844 134.730469 442.089844 135.894531 C 442.089844 137.054688 443.03125 137.996094 444.191406 137.996094 L 462.390625 137.996094 C 463.550781 137.996094 464.488281 137.054688 464.488281 135.894531 C 464.488281 134.730469 463.550781 133.792969 462.390625 133.792969 "/>
<path style=" stroke:none;fill-rule:nonzero;fill:rgb(26.699829%,47.099304%,61.999512%);fill-opacity:1;" d="M 453.867188 133.175781 L 451.683594 133.175781 C 451.683594 133.175781 451.4375 130.472656 448.761719 129.394531 "/>
<path style=" stroke:none;fill-rule:nonzero;fill:rgb(95.298767%,92.498779%,95.298767%);fill-opacity:1;" d="M 394.453125 303.683594 C 387.484375 303.882813 381.996094 309.691406 382.1875 316.664063 C 382.382813 323.636719 388.183594 329.128906 395.152344 328.933594 C 402.117188 328.734375 407.609375 322.925781 407.417969 315.953125 C 407.222656 308.980469 401.421875 303.488281 394.453125 303.683594 "/>
<path style=" stroke:none;fill-rule:nonzero;fill:rgb(58.399963%,79.199219%,85.499573%);fill-opacity:1;" d="M 395.089844 326.636719 C 389.390625 326.796875 384.644531 322.304688 384.484375 316.601563 C 384.324219 310.898438 388.816406 306.144531 394.515625 305.984375 C 400.214844 305.820313 404.964844 310.3125 405.121094 316.019531 C 405.277344 321.71875 400.789063 326.472656 395.089844 326.636719 "/>
<path style=" stroke:none;fill-rule:nonzero;fill:rgb(12.199402%,65.899658%,87.799072%);fill-opacity:1;" d="M 401.808594 308.726563 C 402.40625 309.980469 402.757813 311.378906 402.800781 312.855469 C 402.957031 318.5625 398.464844 323.3125 392.769531 323.476563 C 389.960938 323.554688 387.386719 322.5 385.472656 320.730469 C 387.175781 324.320313 390.867188 326.753906 395.089844 326.636719 C 400.789063 326.472656 405.277344 321.71875 405.121094 316.019531 C 405.039063 313.125 403.777344 310.546875 401.808594 308.726563 "/>
<path style=" stroke:none;fill-rule:nonzero;fill:rgb(95.298767%,92.498779%,95.298767%);fill-opacity:1;" d="M 396.304688 334.171875 L 394.292969 334.226563 L 394.101563 327.3125 L 396.113281 327.253906 L 396.304688 334.171875 "/>
<path style=" stroke:none;fill-rule:nonzero;fill:rgb(26.699829%,47.099304%,61.999512%);fill-opacity:1;" d="M 399.082031 354.886719 L 392.667969 355.070313 L 392.054688 332.902344 L 398.464844 332.71875 L 399.082031 354.886719 "/>
<path style=" stroke:none;fill-rule:nonzero;fill:rgb(95.298767%,92.498779%,95.298767%);fill-opacity:1;" d="M 393.261719 312.023438 C 393.304688 313.570313 392.085938 314.867188 390.535156 314.910156 C 388.984375 314.953125 387.695313 313.730469 387.652344 312.179688 C 387.609375 310.628906 388.832031 309.339844 390.378906 309.292969 C 391.929688 309.25 393.21875 310.472656 393.261719 312.023438 "/>
<path style=" stroke:none;fill-rule:nonzero;fill:rgb(95.298767%,92.498779%,95.298767%);fill-opacity:1;" d="M 399.082031 354.886719 L 392.667969 355.070313 L 392.625 353.441406 L 399.035156 353.261719 L 399.082031 354.886719 "/>
<path style=" stroke:none;fill-rule:nonzero;fill:rgb(26.699829%,47.099304%,61.999512%);fill-opacity:1;" d="M 458.195313 163.160156 C 458.195313 165.53125 456.328125 167.449219 454.023438 167.449219 L 371.03125 167.449219 C 368.726563 167.449219 366.859375 165.53125 366.859375 163.160156 L 366.859375 158.015625 C 366.859375 155.644531 368.726563 153.726563 371.03125 153.726563 L 454.023438 153.726563 C 456.328125 153.726563 458.195313 155.644531 458.195313 158.015625 L 458.195313 163.160156 "/>
<path style=" stroke:none;fill-rule:nonzero;fill:rgb(100%,100%,100%);fill-opacity:1;" d="M 458.195313 268.8125 L 366.949219 268.8125 L 366.949219 163.921875 L 458.195313 163.921875 L 458.195313 268.8125 "/>
<path style=" stroke:none;fill-rule:nonzero;fill:rgb(29.798889%,72.898865%,82.699585%);fill-opacity:1;" d="M 417.640625 197.085938 L 372.152344 197.085938 L 372.152344 169.835938 L 417.640625 169.835938 L 417.640625 197.085938 "/>
<path style=" stroke:none;fill-rule:nonzero;fill:rgb(100%,100%,100%);fill-opacity:1;" d="M 391.972656 179.363281 L 399.398438 183.460938 L 391.972656 187.558594 Z M 391.972656 179.363281 "/>
<path style=" stroke:none;fill-rule:nonzero;fill:rgb(76.499939%,76.899719%,77.598572%);fill-opacity:1;" d="M 417.546875 202.777344 L 372.058594 202.777344 L 372.058594 199.6875 L 417.546875 199.6875 L 417.546875 202.777344 "/>
<path style=" stroke:none;fill-rule:nonzero;fill:rgb(64.698792%,84.698486%,94.499207%);fill-opacity:1;" d="M 453.289063 225.03125 L 372.382813 225.03125 L 372.382813 209.710938 L 453.289063 209.710938 L 453.289063 225.03125 "/>
<path style=" stroke:none;fill-rule:nonzero;fill:rgb(64.698792%,84.698486%,94.499207%);fill-opacity:1;" d="M 454.421875 265.648438 L 370.773438 265.648438 L 370.773438 252.820313 L 454.421875 252.820313 L 454.421875 265.648438 "/>
<path style=" stroke:none;fill-rule:nonzero;fill:rgb(76.499939%,76.899719%,77.598572%);fill-opacity:1;" d="M 394.214844 233.640625 L 374.625 233.640625 L 374.625 232.53125 L 394.214844 232.53125 L 394.214844 233.640625 "/>
<path style=" stroke:none;fill-rule:nonzero;fill:rgb(76.499939%,76.899719%,77.598572%);fill-opacity:1;" d="M 394.214844 236.492188 L 374.625 236.492188 L 374.625 235.382813 L 394.214844 235.382813 L 394.214844 236.492188 "/>
<path style=" stroke:none;fill-rule:nonzero;fill:rgb(76.499939%,76.899719%,77.598572%);fill-opacity:1;" d="M 394.214844 239.34375 L 374.625 239.34375 L 374.625 238.234375 L 394.214844 238.234375 L 394.214844 239.34375 "/>
<path style=" stroke:none;fill-rule:nonzero;fill:rgb(76.499939%,76.899719%,77.598572%);fill-opacity:1;" d="M 394.214844 242.195313 L 374.625 242.195313 L 374.625 241.085938 L 394.214844 241.085938 L 394.214844 242.195313 "/>
<path style=" stroke:none;fill-rule:nonzero;fill:rgb(76.499939%,76.899719%,77.598572%);fill-opacity:1;" d="M 394.214844 245.046875 L 374.625 245.046875 L 374.625 243.9375 L 394.214844 243.9375 L 394.214844 245.046875 "/>
<path style=" stroke:none;fill-rule:nonzero;fill:rgb(76.499939%,76.899719%,77.598572%);fill-opacity:1;" d="M 423.671875 233.640625 L 404.082031 233.640625 L 404.082031 232.53125 L 423.671875 232.53125 L 423.671875 233.640625 "/>
<path style=" stroke:none;fill-rule:nonzero;fill:rgb(76.499939%,76.899719%,77.598572%);fill-opacity:1;" d="M 423.671875 236.492188 L 404.082031 236.492188 L 404.082031 235.382813 L 423.671875 235.382813 L 423.671875 236.492188 "/>
<path style=" stroke:none;fill-rule:nonzero;fill:rgb(76.499939%,76.899719%,77.598572%);fill-opacity:1;" d="M 423.671875 239.34375 L 404.082031 239.34375 L 404.082031 238.234375 L 423.671875 238.234375 L 423.671875 239.34375 "/>
<path style=" stroke:none;fill-rule:nonzero;fill:rgb(76.499939%,76.899719%,77.598572%);fill-opacity:1;" d="M 423.671875 242.195313 L 404.082031 242.195313 L 404.082031 241.085938 L 423.671875 241.085938 L 423.671875 242.195313 "/>
<path style=" stroke:none;fill-rule:nonzero;fill:rgb(76.499939%,76.899719%,77.598572%);fill-opacity:1;" d="M 423.671875 245.046875 L 404.082031 245.046875 L 404.082031 243.9375 L 423.671875 243.9375 L 423.671875 245.046875 "/>
<path style=" stroke:none;fill-rule:nonzero;fill:rgb(76.499939%,76.899719%,77.598572%);fill-opacity:1;" d="M 450.105469 233.640625 L 430.515625 233.640625 L 430.515625 232.53125 L 450.105469 232.53125 L 450.105469 233.640625 "/>
<path style=" stroke:none;fill-rule:nonzero;fill:rgb(76.499939%,76.899719%,77.598572%);fill-opacity:1;" d="M 450.105469 236.492188 L 430.515625 236.492188 L 430.515625 235.382813 L 450.105469 235.382813 L 450.105469 236.492188 "/>
<path style=" stroke:none;fill-rule:nonzero;fill:rgb(76.499939%,76.899719%,77.598572%);fill-opacity:1;" d="M 450.105469 239.34375 L 430.515625 239.34375 L 430.515625 238.234375 L 450.105469 238.234375 L 450.105469 239.34375 "/>
<path style=" stroke:none;fill-rule:nonzero;fill:rgb(76.499939%,76.899719%,77.598572%);fill-opacity:1;" d="M 450.105469 242.195313 L 430.515625 242.195313 L 430.515625 241.085938 L 450.105469 241.085938 L 450.105469 242.195313 "/>
<path style=" stroke:none;fill-rule:nonzero;fill:rgb(76.499939%,76.899719%,77.598572%);fill-opacity:1;" d="M 450.105469 245.046875 L 430.515625 245.046875 L 430.515625 243.9375 L 450.105469 243.9375 L 450.105469 245.046875 "/>
<path style=" stroke:none;fill-rule:nonzero;fill:rgb(76.499939%,76.899719%,77.598572%);fill-opacity:1;" d="M 453.289063 171.597656 L 421.664063 171.597656 L 421.664063 170.625 L 453.289063 170.625 L 453.289063 171.597656 "/>
<path style=" stroke:none;fill-rule:nonzero;fill:rgb(76.499939%,76.899719%,77.598572%);fill-opacity:1;" d="M 453.289063 174.417969 L 421.664063 174.417969 L 421.664063 173.449219 L 453.289063 173.449219 L 453.289063 174.417969 "/>
<path style=" stroke:none;fill-rule:nonzero;fill:rgb(76.499939%,76.899719%,77.598572%);fill-opacity:1;" d="M 453.289063 177.242188 L 421.664063 177.242188 L 421.664063 176.273438 L 453.289063 176.273438 L 453.289063 177.242188 "/>
<path style=" stroke:none;fill-rule:nonzero;fill:rgb(76.499939%,76.899719%,77.598572%);fill-opacity:1;" d="M 453.289063 180.0625 L 421.664063 180.0625 L 421.664063 179.09375 L 453.289063 179.09375 L 453.289063 180.0625 "/>
<path style=" stroke:none;fill-rule:nonzero;fill:rgb(76.499939%,76.899719%,77.598572%);fill-opacity:1;" d="M 453.289063 182.886719 L 421.664063 182.886719 L 421.664063 181.917969 L 453.289063 181.917969 L 453.289063 182.886719 "/>
<path style=" stroke:none;fill-rule:nonzero;fill:rgb(76.499939%,76.899719%,77.598572%);fill-opacity:1;" d="M 453.289063 185.710938 L 421.664063 185.710938 L 421.664063 184.742188 L 453.289063 184.742188 L 453.289063 185.710938 "/>
<path style=" stroke:none;fill-rule:nonzero;fill:rgb(76.499939%,76.899719%,77.598572%);fill-opacity:1;" d="M 453.289063 188.535156 L 421.664063 188.535156 L 421.664063 187.566406 L 453.289063 187.566406 L 453.289063 188.535156 "/>
<path style=" stroke:none;fill-rule:nonzero;fill:rgb(76.499939%,76.899719%,77.598572%);fill-opacity:1;" d="M 453.289063 191.359375 L 421.664063 191.359375 L 421.664063 190.390625 L 453.289063 190.390625 L 453.289063 191.359375 "/>
<path style=" stroke:none;fill-rule:nonzero;fill:rgb(76.499939%,76.899719%,77.598572%);fill-opacity:1;" d="M 453.289063 194.183594 L 421.664063 194.183594 L 421.664063 193.210938 L 453.289063 193.210938 L 453.289063 194.183594 "/>
<path style=" stroke:none;fill-rule:nonzero;fill:rgb(76.499939%,76.899719%,77.598572%);fill-opacity:1;" d="M 453.289063 197.007813 L 421.664063 197.007813 L 421.664063 196.035156 L 453.289063 196.035156 L 453.289063 197.007813 "/>
<path style=" stroke:none;fill-rule:nonzero;fill:rgb(76.499939%,76.899719%,77.598572%);fill-opacity:1;" d="M 453.289063 199.828125 L 421.664063 199.828125 L 421.664063 198.859375 L 453.289063 198.859375 L 453.289063 199.828125 "/>
<path style=" stroke:none;fill-rule:nonzero;fill:rgb(76.499939%,76.899719%,77.598572%);fill-opacity:1;" d="M 453.289063 202.652344 L 421.664063 202.652344 L 421.664063 201.683594 L 453.289063 201.683594 L 453.289063 202.652344 "/>
<path style=" stroke:none;fill-rule:nonzero;fill:rgb(85.099792%,94.499207%,99.198914%);fill-opacity:1;" d="M 445.898438 218.597656 L 380.894531 218.597656 L 380.894531 215.53125 L 445.898438 215.53125 L 445.898438 218.597656 "/>
<path style=" stroke:none;fill-rule:nonzero;fill:rgb(100%,100%,100%);fill-opacity:1;" d="M 373.925781 159.066406 C 373.925781 160.136719 373.058594 161 371.988281 161 C 370.921875 161 370.054688 160.136719 370.054688 159.066406 C 370.054688 157.996094 370.921875 157.132813 371.988281 157.132813 C 373.058594 157.132813 373.925781 157.996094 373.925781 159.066406 "/>
<path style=" stroke:none;fill-rule:nonzero;fill:rgb(100%,100%,100%);fill-opacity:1;" d="M 379.890625 159.066406 C 379.890625 160.136719 379.019531 161 377.953125 161 C 376.882813 161 376.015625 160.136719 376.015625 159.066406 C 376.015625 157.996094 376.882813 157.132813 377.953125 157.132813 C 379.019531 157.132813 379.890625 157.996094 379.890625 159.066406 "/>
<path style=" stroke:none;fill-rule:nonzero;fill:rgb(100%,100%,100%);fill-opacity:1;" d="M 385.851563 159.066406 C 385.851563 160.136719 384.984375 161 383.914063 161 C 382.847656 161 381.980469 160.136719 381.980469 159.066406 C 381.980469 157.996094 382.847656 157.132813 383.914063 157.132813 C 384.984375 157.132813 385.851563 157.996094 385.851563 159.066406 "/>
<path style=" stroke:none;fill-rule:nonzero;fill:rgb(100%,100%,100%);fill-opacity:1;" d="M 394.804688 175.503906 C 390.417969 175.503906 386.847656 179.074219 386.847656 183.460938 C 386.847656 187.847656 390.417969 191.417969 394.804688 191.417969 C 399.191406 191.417969 402.761719 187.847656 402.761719 183.460938 C 402.761719 179.074219 399.191406 175.503906 394.804688 175.503906 Z M 394.804688 193.34375 C 389.355469 193.34375 384.921875 188.910156 384.921875 183.460938 C 384.921875 178.011719 389.355469 173.574219 394.804688 173.574219 C 400.253906 173.574219 404.6875 178.011719 404.6875 183.460938 C 404.6875 188.910156 400.253906 193.34375 394.804688 193.34375 "/>
<path style=" stroke:none;fill-rule:nonzero;fill:rgb(26.699829%,47.099304%,61.999512%);fill-opacity:1;" d="M 290.136719 167.417969 C 290.136719 169.289063 288.636719 170.804688 286.789063 170.804688 L 220.253906 170.804688 C 218.40625 170.804688 216.90625 169.289063 216.90625 167.417969 L 216.90625 163.355469 C 216.90625 161.484375 218.40625 159.972656 220.253906 159.972656 L 286.789063 159.972656 C 288.636719 159.972656 290.136719 161.484375 290.136719 163.355469 L 290.136719 167.417969 "/>
<path style=" stroke:none;fill-rule:nonzero;fill:rgb(100%,100%,100%);fill-opacity:1;" d="M 222.488281 164.183594 C 222.488281 165.027344 221.804688 165.710938 220.960938 165.710938 C 220.113281 165.710938 219.433594 165.027344 219.433594 164.183594 C 219.433594 163.339844 220.113281 162.652344 220.960938 162.652344 C 221.804688 162.652344 222.488281 163.339844 222.488281 164.183594 "/>
<path style=" stroke:none;fill-rule:nonzero;fill:rgb(100%,100%,100%);fill-opacity:1;" d="M 227.199219 164.183594 C 227.199219 165.027344 226.515625 165.710938 225.667969 165.710938 C 224.824219 165.710938 224.140625 165.027344 224.140625 164.183594 C 224.140625 163.339844 224.824219 162.652344 225.667969 162.652344 C 226.515625 162.652344 227.199219 163.339844 227.199219 164.183594 "/>
<path style=" stroke:none;fill-rule:nonzero;fill:rgb(100%,100%,100%);fill-opacity:1;" d="M 231.90625 164.183594 C 231.90625 165.027344 231.222656 165.710938 230.378906 165.710938 C 229.535156 165.710938 228.851563 165.027344 228.851563 164.183594 C 228.851563 163.339844 229.535156 162.652344 230.378906 162.652344 C 231.222656 162.652344 231.90625 163.339844 231.90625 164.183594 "/>
<path style=" stroke:none;fill-rule:nonzero;fill:rgb(100%,100%,100%);fill-opacity:1;" d="M 290.152344 222.9375 L 216.90625 222.9375 L 216.90625 215.222656 L 290.152344 215.222656 L 290.152344 222.9375 "/>
<path style=" stroke:none;fill-rule:nonzero;fill:rgb(29.798889%,72.898865%,82.699585%);fill-opacity:1;" d="M 290.152344 215.222656 L 216.90625 215.222656 L 216.90625 167.773438 L 290.152344 167.773438 L 290.152344 215.222656 "/>
<path style=" stroke:none;fill-rule:nonzero;fill:rgb(100%,100%,100%);fill-opacity:1;" d="M 250.425781 184.730469 L 262.691406 191.496094 L 250.425781 198.261719 Z M 250.425781 184.730469 "/>
<path style=" stroke:none;fill-rule:nonzero;fill:rgb(100%,100%,100%);fill-opacity:1;" d="M 255.101563 177.734375 C 247.511719 177.734375 241.339844 183.90625 241.339844 191.496094 C 241.339844 199.085938 247.511719 205.261719 255.101563 205.261719 C 262.691406 205.261719 268.867188 199.085938 268.867188 191.496094 C 268.867188 183.90625 262.691406 177.734375 255.101563 177.734375 Z M 255.101563 207.1875 C 246.449219 207.1875 239.410156 200.148438 239.410156 191.496094 C 239.410156 182.84375 246.449219 175.804688 255.101563 175.804688 C 263.753906 175.804688 270.792969 182.84375 270.792969 191.496094 C 270.792969 200.148438 263.753906 207.1875 255.101563 207.1875 "/>
<path style=" stroke:none;fill-rule:nonzero;fill:rgb(58.399963%,79.199219%,85.499573%);fill-opacity:1;" d="M 286.792969 219.976563 L 221.378906 219.976563 L 221.378906 218.367188 L 286.792969 218.367188 L 286.792969 219.976563 "/>
<path style=" stroke:none;fill-rule:nonzero;fill:rgb(26.699829%,47.099304%,61.999512%);fill-opacity:1;" d="M 314.269531 302.03125 L 194.507813 302.03125 C 193.21875 302.03125 192.175781 303.089844 192.175781 304.394531 L 192.175781 307.226563 C 192.175781 308.53125 193.21875 309.585938 194.507813 309.585938 L 314.269531 309.585938 C 315.558594 309.585938 316.605469 308.53125 316.605469 307.226563 L 316.605469 304.394531 C 316.605469 303.089844 315.558594 302.03125 314.269531 302.03125 "/>
<path style=" stroke:none;fill-rule:nonzero;fill:rgb(100%,100%,100%);fill-opacity:1;" d="M 196.066406 304.96875 C 196.066406 305.558594 195.589844 306.035156 195 306.035156 C 194.414063 306.035156 193.933594 305.558594 193.933594 304.96875 C 193.933594 304.382813 194.414063 303.902344 195 303.902344 C 195.589844 303.902344 196.066406 304.382813 196.066406 304.96875 "/>
<path style=" stroke:none;fill-rule:nonzero;fill:rgb(100%,100%,100%);fill-opacity:1;" d="M 199.351563 304.96875 C 199.351563 305.558594 198.875 306.035156 198.285156 306.035156 C 197.695313 306.035156 197.21875 305.558594 197.21875 304.96875 C 197.21875 304.382813 197.695313 303.902344 198.285156 303.902344 C 198.875 303.902344 199.351563 304.382813 199.351563 304.96875 "/>
<path style=" stroke:none;fill-rule:nonzero;fill:rgb(100%,100%,100%);fill-opacity:1;" d="M 202.636719 304.96875 C 202.636719 305.558594 202.160156 306.035156 201.570313 306.035156 C 200.980469 306.035156 200.503906 305.558594 200.503906 304.96875 C 200.503906 304.382813 200.980469 303.902344 201.570313 303.902344 C 202.160156 303.902344 202.636719 304.382813 202.636719 304.96875 "/>
<path style=" stroke:none;fill-rule:nonzero;fill:rgb(100%,100%,100%);fill-opacity:1;" d="M 316.605469 373.765625 L 192.175781 373.765625 L 192.175781 307.980469 L 316.605469 307.980469 L 316.605469 373.765625 "/>
<path style=" stroke:none;fill-rule:nonzero;fill:rgb(29.798889%,72.898865%,82.699585%);fill-opacity:1;" d="M 264.785156 347.472656 L 197.21875 347.472656 L 197.21875 313.578125 L 264.785156 313.578125 L 264.785156 347.472656 "/>
<path style=" stroke:none;fill-rule:nonzero;fill:rgb(76.499939%,76.899719%,77.598572%);fill-opacity:1;" d="M 289.175781 339.066406 L 269.457031 339.066406 L 269.457031 337.789063 L 289.175781 337.789063 L 289.175781 339.066406 "/>
<path style=" stroke:none;fill-rule:nonzero;fill:rgb(76.499939%,76.899719%,77.598572%);fill-opacity:1;" d="M 289.175781 342.351563 L 269.457031 342.351563 L 269.457031 341.074219 L 289.175781 341.074219 L 289.175781 342.351563 "/>
<path style=" stroke:none;fill-rule:nonzero;fill:rgb(76.499939%,76.899719%,77.598572%);fill-opacity:1;" d="M 289.175781 345.636719 L 269.457031 345.636719 L 269.457031 344.359375 L 289.175781 344.359375 L 289.175781 345.636719 "/>
<path style=" stroke:none;fill-rule:nonzero;fill:rgb(76.499939%,76.899719%,77.598572%);fill-opacity:1;" d="M 289.175781 348.921875 L 269.457031 348.921875 L 269.457031 347.640625 L 289.175781 347.640625 L 289.175781 348.921875 "/>
<path style=" stroke:none;fill-rule:nonzero;fill:rgb(76.499939%,76.899719%,77.598572%);fill-opacity:1;" d="M 289.175781 352.207031 L 269.457031 352.207031 L 269.457031 350.925781 L 289.175781 350.925781 L 289.175781 352.207031 "/>
<path style=" stroke:none;fill-rule:nonzero;fill:rgb(76.499939%,76.899719%,77.598572%);fill-opacity:1;" d="M 264.785156 353.046875 L 197.21875 353.046875 L 197.21875 351.769531 L 264.785156 351.769531 L 264.785156 353.046875 "/>
<path style=" stroke:none;fill-rule:nonzero;fill:rgb(76.499939%,76.899719%,77.598572%);fill-opacity:1;" d="M 264.785156 356.332031 L 197.21875 356.332031 L 197.21875 355.054688 L 264.785156 355.054688 L 264.785156 356.332031 "/>
<path style=" stroke:none;fill-rule:nonzero;fill:rgb(76.499939%,76.899719%,77.598572%);fill-opacity:1;" d="M 264.785156 359.613281 L 197.21875 359.613281 L 197.21875 358.339844 L 264.785156 358.339844 L 264.785156 359.613281 "/>
<path style=" stroke:none;fill-rule:nonzero;fill:rgb(76.499939%,76.899719%,77.598572%);fill-opacity:1;" d="M 264.785156 362.898438 L 197.21875 362.898438 L 197.21875 361.621094 L 264.785156 361.621094 L 264.785156 362.898438 "/>
<path style=" stroke:none;fill-rule:nonzero;fill:rgb(76.499939%,76.899719%,77.598572%);fill-opacity:1;" d="M 264.785156 366.1875 L 197.21875 366.1875 L 197.21875 364.90625 L 264.785156 364.90625 L 264.785156 366.1875 "/>
<path style=" stroke:none;fill-rule:nonzero;fill:rgb(64.698792%,84.698486%,94.499207%);fill-opacity:1;" d="M 289.175781 333.296875 L 269.457031 333.296875 L 269.457031 313.578125 L 289.175781 313.578125 L 289.175781 333.296875 "/>
<path style=" stroke:none;fill-rule:nonzero;fill:rgb(76.499939%,76.899719%,77.598572%);fill-opacity:1;" d="M 312.3125 339.472656 L 292.589844 339.472656 L 292.589844 338.195313 L 312.3125 338.195313 L 312.3125 339.472656 "/>
<path style=" stroke:none;fill-rule:nonzero;fill:rgb(76.499939%,76.899719%,77.598572%);fill-opacity:1;" d="M 312.3125 342.757813 L 292.589844 342.757813 L 292.589844 341.480469 L 312.3125 341.480469 L 312.3125 342.757813 "/>
<path style=" stroke:none;fill-rule:nonzero;fill:rgb(76.499939%,76.899719%,77.598572%);fill-opacity:1;" d="M 312.3125 346.042969 L 292.589844 346.042969 L 292.589844 344.765625 L 312.3125 344.765625 L 312.3125 346.042969 "/>
<path style=" stroke:none;fill-rule:nonzero;fill:rgb(76.499939%,76.899719%,77.598572%);fill-opacity:1;" d="M 312.3125 349.328125 L 292.589844 349.328125 L 292.589844 348.046875 L 312.3125 348.046875 L 312.3125 349.328125 "/>
<path style=" stroke:none;fill-rule:nonzero;fill:rgb(76.499939%,76.899719%,77.598572%);fill-opacity:1;" d="M 312.3125 352.613281 L 292.589844 352.613281 L 292.589844 351.332031 L 312.3125 351.332031 L 312.3125 352.613281 "/>
<path style=" stroke:none;fill-rule:nonzero;fill:rgb(64.698792%,84.698486%,94.499207%);fill-opacity:1;" d="M 312.3125 333.703125 L 292.589844 333.703125 L 292.589844 313.984375 L 312.3125 313.984375 L 312.3125 333.703125 "/>
<path style=" stroke:none;fill-rule:nonzero;fill:rgb(76.499939%,76.899719%,77.598572%);fill-opacity:1;" d="M 312.3125 366.777344 L 270.003906 366.777344 L 270.003906 356.332031 L 312.3125 356.332031 L 312.3125 366.777344 "/>
<path style=" stroke:none;fill-rule:nonzero;fill:rgb(100%,100%,100%);fill-opacity:1;" d="M 164.726563 181.0625 L 92.042969 181.0625 L 92.042969 98.972656 L 164.726563 98.972656 L 164.726563 181.0625 "/>
<path style=" stroke:none;fill-rule:nonzero;fill:rgb(29.798889%,72.898865%,82.699585%);fill-opacity:1;" d="M 160.554688 131.347656 L 96.21875 131.347656 L 96.21875 103.390625 L 160.554688 103.390625 L 160.554688 131.347656 "/>
<path style=" stroke:none;fill-rule:nonzero;fill:rgb(76.499939%,76.899719%,77.598572%);fill-opacity:1;" d="M 114.4375 136.613281 L 96.796875 136.613281 L 96.796875 135.613281 L 114.4375 135.613281 L 114.4375 136.613281 "/>
<path style=" stroke:none;fill-rule:nonzero;fill:rgb(76.499939%,76.899719%,77.598572%);fill-opacity:1;" d="M 114.4375 139.183594 L 96.796875 139.183594 L 96.796875 138.183594 L 114.4375 138.183594 L 114.4375 139.183594 "/>
<path style=" stroke:none;fill-rule:nonzero;fill:rgb(76.499939%,76.899719%,77.598572%);fill-opacity:1;" d="M 114.4375 141.75 L 96.796875 141.75 L 96.796875 140.75 L 114.4375 140.75 L 114.4375 141.75 "/>
<path style=" stroke:none;fill-rule:nonzero;fill:rgb(76.499939%,76.899719%,77.598572%);fill-opacity:1;" d="M 114.4375 144.320313 L 96.796875 144.320313 L 96.796875 143.320313 L 114.4375 143.320313 L 114.4375 144.320313 "/>
<path style=" stroke:none;fill-rule:nonzero;fill:rgb(76.499939%,76.899719%,77.598572%);fill-opacity:1;" d="M 114.4375 146.886719 L 96.796875 146.886719 L 96.796875 145.886719 L 114.4375 145.886719 L 114.4375 146.886719 "/>
<path style=" stroke:none;fill-rule:nonzero;fill:rgb(76.499939%,76.899719%,77.598572%);fill-opacity:1;" d="M 137.203125 136.613281 L 119.566406 136.613281 L 119.566406 135.613281 L 137.203125 135.613281 L 137.203125 136.613281 "/>
<path style=" stroke:none;fill-rule:nonzero;fill:rgb(76.499939%,76.899719%,77.598572%);fill-opacity:1;" d="M 137.203125 139.183594 L 119.566406 139.183594 L 119.566406 138.183594 L 137.203125 138.183594 L 137.203125 139.183594 "/>
<path style=" stroke:none;fill-rule:nonzero;fill:rgb(76.499939%,76.899719%,77.598572%);fill-opacity:1;" d="M 137.203125 141.75 L 119.566406 141.75 L 119.566406 140.75 L 137.203125 140.75 L 137.203125 141.75 "/>
<path style=" stroke:none;fill-rule:nonzero;fill:rgb(76.499939%,76.899719%,77.598572%);fill-opacity:1;" d="M 137.203125 144.320313 L 119.566406 144.320313 L 119.566406 143.320313 L 137.203125 143.320313 L 137.203125 144.320313 "/>
<path style=" stroke:none;fill-rule:nonzero;fill:rgb(76.499939%,76.899719%,77.598572%);fill-opacity:1;" d="M 137.203125 146.886719 L 119.566406 146.886719 L 119.566406 145.886719 L 137.203125 145.886719 L 137.203125 146.886719 "/>
<path style=" stroke:none;fill-rule:nonzero;fill:rgb(76.499939%,76.899719%,77.598572%);fill-opacity:1;" d="M 159.972656 136.613281 L 142.335938 136.613281 L 142.335938 135.613281 L 159.972656 135.613281 L 159.972656 136.613281 "/>
<path style=" stroke:none;fill-rule:nonzero;fill:rgb(76.499939%,76.899719%,77.598572%);fill-opacity:1;" d="M 159.972656 139.183594 L 142.335938 139.183594 L 142.335938 138.183594 L 159.972656 138.183594 L 159.972656 139.183594 "/>
<path style=" stroke:none;fill-rule:nonzero;fill:rgb(76.499939%,76.899719%,77.598572%);fill-opacity:1;" d="M 159.972656 141.75 L 142.335938 141.75 L 142.335938 140.75 L 159.972656 140.75 L 159.972656 141.75 "/>
<path style=" stroke:none;fill-rule:nonzero;fill:rgb(76.499939%,76.899719%,77.598572%);fill-opacity:1;" d="M 159.972656 144.320313 L 142.335938 144.320313 L 142.335938 143.320313 L 159.972656 143.320313 L 159.972656 144.320313 "/>
<path style=" stroke:none;fill-rule:nonzero;fill:rgb(76.499939%,76.899719%,77.598572%);fill-opacity:1;" d="M 159.972656 146.886719 L 142.335938 146.886719 L 142.335938 145.886719 L 159.972656 145.886719 L 159.972656 146.886719 "/>
<path style=" stroke:none;fill-rule:nonzero;fill:rgb(76.499939%,76.899719%,77.598572%);fill-opacity:1;" d="M 160.636719 153.617188 L 115.585938 153.617188 L 115.585938 152.621094 L 160.636719 152.621094 L 160.636719 153.617188 "/>
<path style=" stroke:none;fill-rule:nonzero;fill:rgb(76.499939%,76.899719%,77.598572%);fill-opacity:1;" d="M 160.636719 156.1875 L 115.585938 156.1875 L 115.585938 155.191406 L 160.636719 155.191406 L 160.636719 156.1875 "/>
<path style=" stroke:none;fill-rule:nonzero;fill:rgb(76.499939%,76.899719%,77.598572%);fill-opacity:1;" d="M 160.636719 158.757813 L 115.585938 158.757813 L 115.585938 157.757813 L 160.636719 157.757813 L 160.636719 158.757813 "/>
<path style=" stroke:none;fill-rule:nonzero;fill:rgb(76.499939%,76.899719%,77.598572%);fill-opacity:1;" d="M 160.636719 161.324219 L 115.585938 161.324219 L 115.585938 160.324219 L 160.636719 160.324219 L 160.636719 161.324219 "/>
<path style=" stroke:none;fill-rule:nonzero;fill:rgb(76.499939%,76.899719%,77.598572%);fill-opacity:1;" d="M 160.636719 163.894531 L 115.585938 163.894531 L 115.585938 162.894531 L 160.636719 162.894531 L 160.636719 163.894531 "/>
<path style=" stroke:none;fill-rule:nonzero;fill:rgb(76.499939%,76.899719%,77.598572%);fill-opacity:1;" d="M 160.636719 167.1875 L 115.585938 167.1875 L 115.585938 166.1875 L 160.636719 166.1875 L 160.636719 167.1875 "/>
<path style=" stroke:none;fill-rule:nonzero;fill:rgb(76.499939%,76.899719%,77.598572%);fill-opacity:1;" d="M 160.636719 169.753906 L 115.585938 169.753906 L 115.585938 168.757813 L 160.636719 168.757813 L 160.636719 169.753906 "/>
<path style=" stroke:none;fill-rule:nonzero;fill:rgb(76.499939%,76.899719%,77.598572%);fill-opacity:1;" d="M 160.636719 172.324219 L 115.585938 172.324219 L 115.585938 171.324219 L 160.636719 171.324219 L 160.636719 172.324219 "/>
<path style=" stroke:none;fill-rule:nonzero;fill:rgb(76.499939%,76.899719%,77.598572%);fill-opacity:1;" d="M 160.636719 174.890625 L 115.585938 174.890625 L 115.585938 173.890625 L 160.636719 173.890625 L 160.636719 174.890625 "/>
<path style=" stroke:none;fill-rule:nonzero;fill:rgb(76.499939%,76.899719%,77.598572%);fill-opacity:1;" d="M 160.636719 177.460938 L 115.585938 177.460938 L 115.585938 176.460938 L 160.636719 176.460938 L 160.636719 177.460938 "/>
<path style=" stroke:none;fill-rule:nonzero;fill:rgb(76.499939%,76.899719%,77.598572%);fill-opacity:1;" d="M 113.066406 177.460938 L 95.816406 177.460938 L 95.816406 152.621094 L 113.066406 152.621094 L 113.066406 177.460938 "/>
<path style=" stroke:none;fill-rule:nonzero;fill:rgb(26.699829%,47.099304%,61.999512%);fill-opacity:1;" d="M 162.601563 93.621094 L 94.171875 93.621094 C 92.996094 93.621094 92.042969 94.585938 92.042969 95.773438 L 92.042969 98.355469 C 92.042969 99.546875 92.996094 100.507813 94.171875 100.507813 L 162.601563 100.507813 C 163.773438 100.507813 164.726563 99.546875 164.726563 98.355469 L 164.726563 95.773438 C 164.726563 94.585938 163.773438 93.621094 162.601563 93.621094 "/>
<path style=" stroke:none;fill-rule:nonzero;fill:rgb(100%,100%,100%);fill-opacity:1;" d="M 95.59375 96.300781 C 95.59375 96.835938 95.15625 97.269531 94.621094 97.269531 C 94.082031 97.269531 93.648438 96.835938 93.648438 96.300781 C 93.648438 95.761719 94.082031 95.328125 94.621094 95.328125 C 95.15625 95.328125 95.59375 95.761719 95.59375 96.300781 "/>
<path style=" stroke:none;fill-rule:nonzero;fill:rgb(100%,100%,100%);fill-opacity:1;" d="M 98.589844 96.300781 C 98.589844 96.835938 98.152344 97.269531 97.613281 97.269531 C 97.078125 97.269531 96.644531 96.835938 96.644531 96.300781 C 96.644531 95.761719 97.078125 95.328125 97.613281 95.328125 C 98.152344 95.328125 98.589844 95.761719 98.589844 96.300781 "/>
<path style=" stroke:none;fill-rule:nonzero;fill:rgb(100%,100%,100%);fill-opacity:1;" d="M 101.582031 96.300781 C 101.582031 96.835938 101.144531 97.269531 100.609375 97.269531 C 100.070313 97.269531 99.636719 96.835938 99.636719 96.300781 C 99.636719 95.761719 100.070313 95.328125 100.609375 95.328125 C 101.144531 95.328125 101.582031 95.761719 101.582031 96.300781 "/>
<path style=" stroke:none;fill-rule:nonzero;fill:rgb(26.699829%,47.099304%,61.999512%);fill-opacity:1;" d="M 164.726563 100.507813 L 92.042969 100.507813 L 92.042969 98.355469 L 164.726563 98.355469 L 164.726563 100.507813 "/>
<path style=" stroke:none;fill-rule:nonzero;fill:rgb(98.799133%,88.198853%,1.599121%);fill-opacity:1;" d="M 186.820313 340.179688 C 186.820313 342.84375 184.664063 345 182.003906 345 C 179.339844 345 177.183594 342.84375 177.183594 340.179688 C 177.183594 337.519531 179.339844 335.359375 182.003906 335.359375 C 184.664063 335.359375 186.820313 337.519531 186.820313 340.179688 "/>
<path style=" stroke:none;fill-rule:nonzero;fill:rgb(98.799133%,88.198853%,1.599121%);fill-opacity:1;" d="M 331.464844 340.871094 C 331.464844 343.535156 329.304688 345.691406 326.644531 345.691406 C 323.980469 345.691406 321.824219 343.535156 321.824219 340.871094 C 321.824219 338.210938 323.980469 336.054688 326.644531 336.054688 C 329.304688 336.054688 331.464844 338.210938 331.464844 340.871094 "/>
<path style=" stroke:none;fill-rule:nonzero;fill:rgb(98.799133%,88.198853%,1.599121%);fill-opacity:1;" d="M 421.449219 280.710938 C 421.449219 283.371094 419.289063 285.53125 416.628906 285.53125 C 413.96875 285.53125 411.808594 283.371094 411.808594 280.710938 C 411.808594 278.050781 413.96875 275.890625 416.628906 275.890625 C 419.289063 275.890625 421.449219 278.050781 421.449219 280.710938 "/>
<path style=" stroke:none;fill-rule:nonzero;fill:rgb(98.799133%,88.198853%,1.599121%);fill-opacity:1;" d="M 92.042969 335.359375 C 92.042969 338.023438 89.886719 340.179688 87.226563 340.179688 C 84.5625 340.179688 82.40625 338.023438 82.40625 335.359375 C 82.40625 332.699219 84.5625 330.539063 87.226563 330.539063 C 89.886719 330.539063 92.042969 332.699219 92.042969 335.359375 "/>
<path style=" stroke:none;fill-rule:nonzero;fill:rgb(98.799133%,88.198853%,1.599121%);fill-opacity:1;" d="M 143.808594 371.824219 L 87.226563 371.824219 C 86.425781 371.824219 85.78125 371.179688 85.78125 370.378906 L 85.78125 334.4375 C 85.78125 333.636719 86.425781 332.992188 87.226563 332.992188 C 88.023438 332.992188 88.671875 333.636719 88.671875 334.4375 L 88.671875 368.933594 L 142.363281 368.933594 L 142.363281 340.558594 C 142.363281 339.757813 143.011719 339.109375 143.808594 339.109375 L 180.917969 339.109375 C 181.71875 339.109375 182.363281 339.757813 182.363281 340.558594 C 182.363281 341.355469 181.71875 342.003906 180.917969 342.003906 L 145.253906 342.003906 L 145.253906 370.378906 C 145.253906 371.179688 144.609375 371.824219 143.808594 371.824219 "/>
<path style=" stroke:none;fill-rule:nonzero;fill:rgb(26.699829%,47.099304%,61.999512%);fill-opacity:1;" d="M 127.363281 234.003906 L 47.328125 234.003906 C 45.953125 234.003906 44.839844 235.132813 44.839844 236.523438 L 44.839844 239.542969 C 44.839844 240.933594 45.953125 242.0625 47.328125 242.0625 L 127.363281 242.0625 C 128.734375 242.0625 129.851563 240.933594 129.851563 239.542969 L 129.851563 236.523438 C 129.851563 235.132813 128.734375 234.003906 127.363281 234.003906 "/>
<path style=" stroke:none;fill-rule:nonzero;fill:rgb(100%,100%,100%);fill-opacity:1;" d="M 48.988281 237.136719 C 48.988281 237.761719 48.480469 238.273438 47.851563 238.273438 C 47.222656 238.273438 46.714844 237.761719 46.714844 237.136719 C 46.714844 236.507813 47.222656 236 47.851563 236 C 48.480469 236 48.988281 236.507813 48.988281 237.136719 "/>
<path style=" stroke:none;fill-rule:nonzero;fill:rgb(100%,100%,100%);fill-opacity:1;" d="M 52.492188 237.136719 C 52.492188 237.761719 51.984375 238.273438 51.355469 238.273438 C 50.726563 238.273438 50.21875 237.761719 50.21875 237.136719 C 50.21875 236.507813 50.726563 236 51.355469 236 C 51.984375 236 52.492188 236.507813 52.492188 237.136719 "/>
<path style=" stroke:none;fill-rule:nonzero;fill:rgb(100%,100%,100%);fill-opacity:1;" d="M 55.992188 237.136719 C 55.992188 237.761719 55.484375 238.273438 54.855469 238.273438 C 54.230469 238.273438 53.71875 237.761719 53.71875 237.136719 C 53.71875 236.507813 54.230469 236 54.855469 236 C 55.484375 236 55.992188 236.507813 55.992188 237.136719 "/>
<path style=" stroke:none;fill-rule:nonzero;fill:rgb(100%,100%,100%);fill-opacity:1;" d="M 129.851563 327.050781 L 44.839844 327.050781 L 44.839844 240.109375 L 129.851563 240.109375 L 129.851563 327.050781 "/>
<path style=" stroke:none;fill-rule:nonzero;fill:rgb(64.698792%,84.698486%,94.499207%);fill-opacity:1;" d="M 125.472656 277.800781 L 48.464844 277.800781 L 48.464844 245.722656 L 125.472656 245.722656 L 125.472656 277.800781 "/>
<path style=" stroke:none;fill-rule:nonzero;fill:rgb(64.698792%,84.698486%,94.499207%);fill-opacity:1;" d="M 125.472656 322.355469 L 48.464844 322.355469 L 48.464844 316.269531 L 125.472656 316.269531 L 125.472656 322.355469 "/>
<path style=" stroke:none;fill-rule:nonzero;fill:rgb(76.499939%,76.899719%,77.598572%);fill-opacity:1;" d="M 68.984375 286.140625 L 50.394531 286.140625 L 50.394531 285.089844 L 68.984375 285.089844 L 68.984375 286.140625 "/>
<path style=" stroke:none;fill-rule:nonzero;fill:rgb(76.499939%,76.899719%,77.598572%);fill-opacity:1;" d="M 68.984375 288.851563 L 50.394531 288.851563 L 50.394531 287.796875 L 68.984375 287.796875 L 68.984375 288.851563 "/>
<path style=" stroke:none;fill-rule:nonzero;fill:rgb(76.499939%,76.899719%,77.598572%);fill-opacity:1;" d="M 68.984375 291.554688 L 50.394531 291.554688 L 50.394531 290.503906 L 68.984375 290.503906 L 68.984375 291.554688 "/>
<path style=" stroke:none;fill-rule:nonzero;fill:rgb(76.499939%,76.899719%,77.598572%);fill-opacity:1;" d="M 68.984375 294.261719 L 50.394531 294.261719 L 50.394531 293.210938 L 68.984375 293.210938 L 68.984375 294.261719 "/>
<path style=" stroke:none;fill-rule:nonzero;fill:rgb(76.499939%,76.899719%,77.598572%);fill-opacity:1;" d="M 68.984375 296.972656 L 50.394531 296.972656 L 50.394531 295.914063 L 68.984375 295.914063 L 68.984375 296.972656 "/>
<path style=" stroke:none;fill-rule:nonzero;fill:rgb(76.499939%,76.899719%,77.598572%);fill-opacity:1;" d="M 68.984375 300.335938 L 50.394531 300.335938 L 50.394531 299.28125 L 68.984375 299.28125 L 68.984375 300.335938 "/>
<path style=" stroke:none;fill-rule:nonzero;fill:rgb(76.499939%,76.899719%,77.598572%);fill-opacity:1;" d="M 68.984375 303.042969 L 50.394531 303.042969 L 50.394531 301.988281 L 68.984375 301.988281 L 68.984375 303.042969 "/>
<path style=" stroke:none;fill-rule:nonzero;fill:rgb(76.499939%,76.899719%,77.598572%);fill-opacity:1;" d="M 68.984375 305.746094 L 50.394531 305.746094 L 50.394531 304.695313 L 68.984375 304.695313 L 68.984375 305.746094 "/>
<path style=" stroke:none;fill-rule:nonzero;fill:rgb(76.499939%,76.899719%,77.598572%);fill-opacity:1;" d="M 68.984375 308.453125 L 50.394531 308.453125 L 50.394531 307.402344 L 68.984375 307.402344 L 68.984375 308.453125 "/>
<path style=" stroke:none;fill-rule:nonzero;fill:rgb(76.499939%,76.899719%,77.598572%);fill-opacity:1;" d="M 68.984375 311.164063 L 50.394531 311.164063 L 50.394531 310.109375 L 68.984375 310.109375 L 68.984375 311.164063 "/>
<path style=" stroke:none;fill-rule:nonzero;fill:rgb(76.499939%,76.899719%,77.598572%);fill-opacity:1;" d="M 122.390625 286.140625 L 73.480469 286.140625 L 73.480469 285.089844 L 122.390625 285.089844 L 122.390625 286.140625 "/>
<path style=" stroke:none;fill-rule:nonzero;fill:rgb(76.499939%,76.899719%,77.598572%);fill-opacity:1;" d="M 122.390625 288.851563 L 73.480469 288.851563 L 73.480469 287.796875 L 122.390625 287.796875 L 122.390625 288.851563 "/>
<path style=" stroke:none;fill-rule:nonzero;fill:rgb(76.499939%,76.899719%,77.598572%);fill-opacity:1;" d="M 122.390625 291.554688 L 73.480469 291.554688 L 73.480469 290.503906 L 122.390625 290.503906 L 122.390625 291.554688 "/>
<path style=" stroke:none;fill-rule:nonzero;fill:rgb(76.499939%,76.899719%,77.598572%);fill-opacity:1;" d="M 122.390625 294.261719 L 73.480469 294.261719 L 73.480469 293.210938 L 122.390625 293.210938 L 122.390625 294.261719 "/>
<path style=" stroke:none;fill-rule:nonzero;fill:rgb(76.499939%,76.899719%,77.598572%);fill-opacity:1;" d="M 122.390625 296.972656 L 73.480469 296.972656 L 73.480469 295.914063 L 122.390625 295.914063 L 122.390625 296.972656 "/>
<path style=" stroke:none;fill-rule:nonzero;fill:rgb(76.499939%,76.899719%,77.598572%);fill-opacity:1;" d="M 122.390625 300.441406 L 73.480469 300.441406 L 73.480469 299.390625 L 122.390625 299.390625 L 122.390625 300.441406 "/>
<path style=" stroke:none;fill-rule:nonzero;fill:rgb(76.499939%,76.899719%,77.598572%);fill-opacity:1;" d="M 122.390625 303.148438 L 73.480469 303.148438 L 73.480469 302.097656 L 122.390625 302.097656 L 122.390625 303.148438 "/>
<path style=" stroke:none;fill-rule:nonzero;fill:rgb(76.499939%,76.899719%,77.598572%);fill-opacity:1;" d="M 122.390625 305.855469 L 73.480469 305.855469 L 73.480469 304.800781 L 122.390625 304.800781 L 122.390625 305.855469 "/>
<path style=" stroke:none;fill-rule:nonzero;fill:rgb(76.499939%,76.899719%,77.598572%);fill-opacity:1;" d="M 122.390625 308.5625 L 73.480469 308.5625 L 73.480469 307.507813 L 122.390625 307.507813 L 122.390625 308.5625 "/>
<path style=" stroke:none;fill-rule:nonzero;fill:rgb(76.499939%,76.899719%,77.598572%);fill-opacity:1;" d="M 122.390625 311.269531 L 73.480469 311.269531 L 73.480469 310.214844 L 122.390625 310.214844 L 122.390625 311.269531 "/>
<path style=" stroke:none;fill-rule:nonzero;fill:rgb(26.699829%,47.099304%,61.999512%);fill-opacity:1;" d="M 129.851563 242.0625 L 44.839844 242.0625 L 44.839844 239.542969 L 129.851563 239.542969 L 129.851563 242.0625 "/>
<path style=" stroke:none;fill-rule:nonzero;fill:rgb(98.799133%,88.198853%,1.599121%);fill-opacity:1;" d="M 259.210938 290.503906 C 259.210938 293.164063 257.050781 295.324219 254.390625 295.324219 C 251.730469 295.324219 249.570313 293.164063 249.570313 290.503906 C 249.570313 287.84375 251.730469 285.683594 254.390625 285.683594 C 257.050781 285.683594 259.210938 287.84375 259.210938 290.503906 "/>
<path style=" stroke:none;fill-rule:nonzero;fill:rgb(98.799133%,88.198853%,1.599121%);fill-opacity:1;" d="M 259.210938 233.511719 C 259.210938 236.171875 257.050781 238.328125 254.390625 238.328125 C 251.730469 238.328125 249.570313 236.171875 249.570313 233.511719 C 249.570313 230.847656 251.730469 228.691406 254.390625 228.691406 C 257.050781 228.691406 259.210938 230.847656 259.210938 233.511719 "/>
<path style=" stroke:none;fill-rule:nonzero;fill:rgb(98.799133%,88.198853%,1.599121%);fill-opacity:1;" d="M 254.390625 291.949219 C 253.59375 291.949219 252.945313 291.300781 252.945313 290.503906 L 252.945313 235.882813 C 252.945313 235.085938 253.59375 234.4375 254.390625 234.4375 C 255.1875 234.4375 255.835938 235.085938 255.835938 235.882813 L 255.835938 290.503906 C 255.835938 291.300781 255.1875 291.949219 254.390625 291.949219 "/>
<path style=" stroke:none;fill-rule:nonzero;fill:rgb(98.799133%,88.198853%,1.599121%);fill-opacity:1;" d="M 258.90625 261.761719 C 258.90625 264.421875 256.746094 266.578125 254.085938 266.578125 C 251.425781 266.578125 249.269531 264.421875 249.269531 261.761719 C 249.269531 259.097656 251.425781 256.941406 254.085938 256.941406 C 256.746094 256.941406 258.90625 259.097656 258.90625 261.761719 "/>
<path style=" stroke:none;fill-rule:nonzero;fill:rgb(98.799133%,88.198853%,1.599121%);fill-opacity:1;" d="M 186.820313 142.613281 C 186.820313 145.277344 184.664063 147.433594 182.003906 147.433594 C 179.339844 147.433594 177.183594 145.277344 177.183594 142.613281 C 177.183594 139.953125 179.339844 137.792969 182.003906 137.792969 C 184.664063 137.792969 186.820313 139.953125 186.820313 142.613281 "/>
<path style=" stroke:none;fill-rule:nonzero;fill:rgb(98.799133%,88.198853%,1.599121%);fill-opacity:1;" d="M 309.429688 190.390625 C 309.429688 193.050781 307.269531 195.207031 304.609375 195.207031 C 301.949219 195.207031 299.789063 193.050781 299.789063 190.390625 C 299.789063 187.726563 301.949219 185.570313 304.609375 185.570313 C 307.269531 185.570313 309.429688 187.726563 309.429688 190.390625 "/>
<path style=" stroke:none;fill-rule:nonzero;fill:rgb(98.799133%,88.198853%,1.599121%);fill-opacity:1;" d="M 418.695313 139.882813 C 418.695313 142.546875 416.535156 144.703125 413.875 144.703125 C 411.214844 144.703125 409.058594 142.546875 409.058594 139.882813 C 409.058594 137.222656 411.214844 135.0625 413.875 135.0625 C 416.535156 135.0625 418.695313 137.222656 418.695313 139.882813 "/>
<path style=" stroke:none;fill-rule:nonzero;fill:rgb(98.799133%,88.198853%,1.599121%);fill-opacity:1;" d="M 182.003906 201.054688 C 181.203125 201.054688 180.558594 200.40625 180.558594 199.605469 L 180.558594 144.988281 C 180.558594 144.1875 181.203125 143.542969 182.003906 143.542969 C 182.800781 143.542969 183.449219 144.1875 183.449219 144.988281 L 183.449219 199.605469 C 183.449219 200.40625 182.800781 201.054688 182.003906 201.054688 "/>
<path style=" stroke:none;fill-rule:nonzero;fill:rgb(98.799133%,88.198853%,1.599121%);fill-opacity:1;" d="M 416.628906 378.371094 L 372.6875 378.371094 C 371.890625 378.371094 371.242188 377.722656 371.242188 376.925781 L 371.242188 342.441406 L 327.527344 342.441406 C 326.730469 342.441406 326.085938 341.792969 326.085938 340.996094 C 326.085938 340.195313 326.730469 339.550781 327.527344 339.550781 L 372.6875 339.550781 C 373.488281 339.550781 374.136719 340.195313 374.136719 340.996094 L 374.136719 375.480469 L 415.183594 375.480469 L 415.183594 281.824219 C 415.183594 281.023438 415.828125 280.378906 416.628906 280.378906 C 417.429688 280.378906 418.074219 281.023438 418.074219 281.824219 L 418.074219 376.925781 C 418.074219 377.722656 417.429688 378.371094 416.628906 378.371094 "/>
<path style=" stroke:none;fill-rule:nonzero;fill:rgb(98.799133%,88.198853%,1.599121%);fill-opacity:1;" d="M 253.070313 263.207031 L 182.003906 263.207031 C 181.203125 263.207031 180.558594 262.558594 180.558594 261.761719 L 180.558594 201.230469 C 180.558594 200.433594 181.203125 199.785156 182.003906 199.785156 C 182.800781 199.785156 183.449219 200.433594 183.449219 201.230469 L 183.449219 260.3125 L 253.070313 260.3125 C 253.867188 260.3125 254.515625 260.960938 254.515625 261.761719 C 254.515625 262.558594 253.867188 263.207031 253.070313 263.207031 "/>
<path style=" stroke:none;fill-rule:nonzero;fill:rgb(98.799133%,88.198853%,1.599121%);fill-opacity:1;" d="M 304.609375 193.824219 C 303.8125 193.824219 303.164063 193.179688 303.164063 192.378906 L 303.164063 113.949219 C 303.164063 113.148438 303.8125 112.503906 304.609375 112.503906 L 366.949219 112.503906 C 367.75 112.503906 368.398438 113.148438 368.398438 113.949219 L 368.398438 139.8125 L 415.421875 139.8125 C 416.21875 139.8125 416.867188 140.460938 416.867188 141.257813 C 416.867188 142.058594 416.21875 142.703125 415.421875 142.703125 L 366.949219 142.703125 C 366.152344 142.703125 365.507813 142.058594 365.507813 141.257813 L 365.507813 115.394531 L 306.058594 115.394531 L 306.058594 192.378906 C 306.058594 193.179688 305.410156 193.824219 304.609375 193.824219 "/>
<path style=" stroke:none;fill-rule:nonzero;fill:rgb(100%,100%,100%);fill-opacity:1;" d="M 153.445313 238.902344 C 151.933594 238.902344 150.710938 237.679688 150.710938 236.164063 C 150.710938 234.65625 151.933594 233.429688 153.445313 233.429688 C 154.957031 233.429688 156.183594 234.65625 156.183594 236.164063 C 156.183594 237.679688 154.957031 238.902344 153.445313 238.902344 Z M 153.445313 230.066406 C 149.136719 230.066406 145.644531 233.5625 145.644531 237.871094 C 145.644531 242.179688 153.445313 253.359375 153.445313 253.359375 C 153.445313 253.359375 161.25 242.179688 161.25 237.871094 C 161.25 233.5625 157.753906 230.066406 153.445313 230.066406 "/>
<path style=" stroke:none;fill-rule:nonzero;fill:rgb(94.099426%,29.798889%,29.399109%);fill-opacity:1;" d="M 412.835938 104.386719 C 410.789063 104.386719 409.128906 102.726563 409.128906 100.679688 C 409.128906 98.632813 410.789063 96.976563 412.835938 96.976563 C 414.882813 96.976563 416.542969 98.632813 416.542969 100.679688 C 416.542969 102.726563 414.882813 104.386719 412.835938 104.386719 Z M 412.835938 92.425781 C 407 92.425781 402.269531 97.152344 402.269531 102.988281 C 402.269531 108.824219 412.835938 123.964844 412.835938 123.964844 C 412.835938 123.964844 423.402344 108.824219 423.402344 102.988281 C 423.402344 97.152344 418.671875 92.425781 412.835938 92.425781 "/>
<path style=" stroke:none;fill-rule:nonzero;fill:rgb(26.699829%,47.099304%,61.999512%);fill-opacity:1;" d="M 466 333.660156 L 448.8125 333.660156 L 448.8125 329.375 L 466 329.375 L 466 333.660156 "/>
<path style=" stroke:none;fill-rule:nonzero;fill:rgb(95.298767%,92.498779%,95.298767%);fill-opacity:1;" d="M 455.71875 333.660156 L 425.515625 333.660156 L 425.515625 329.375 L 455.71875 329.375 L 455.71875 333.660156 "/>
<path style=" stroke:none;fill-rule:nonzero;fill:rgb(26.699829%,47.099304%,61.999512%);fill-opacity:1;" d="M 452.023438 339.539063 L 425.515625 339.539063 L 425.515625 338.15625 L 452.023438 338.15625 L 452.023438 339.539063 "/>
<path style=" stroke:none;fill-rule:nonzero;fill:rgb(26.699829%,47.099304%,61.999512%);fill-opacity:1;" d="M 452.023438 343.394531 L 425.515625 343.394531 L 425.515625 342.015625 L 452.023438 342.015625 L 452.023438 343.394531 "/>
<path style=" stroke:none;fill-rule:nonzero;fill:rgb(26.699829%,47.099304%,61.999512%);fill-opacity:1;" d="M 452.023438 347.25 L 425.515625 347.25 L 425.515625 345.871094 L 452.023438 345.871094 L 452.023438 347.25 "/>

</g>
</svg>
